<svg width="260" height="110" viewBox="0 0 260 110" fill="none" xmlns="http://www.w3.org/2000/svg">
<path fill-rule="evenodd" clip-rule="evenodd" d="M40.2804 10.592L71.3907 13.1097L70.0662 42.613L113.833 84.1447C113.833 84.1447 113.833 85.7542 114.181 86.1704C114.532 86.5867 115.372 87.1467 115.576 87.563C115.791 87.9792 115.576 89.1044 115.924 89.5206C116.275 89.9369 118.19 90.9132 118.19 90.9132C118.19 90.9132 117.534 91.8239 117.183 92.172C116.835 92.5226 115.508 93.2189 115.228 93.8471C114.948 94.4778 114.88 96.0847 115.014 96.7154C115.15 97.3436 115.296 98.3224 115.014 98.6024C114.734 98.885 114.171 99.5812 113.891 99.7931C113.611 100.008 113.331 100.008 113.397 100.356C113.465 100.704 114.095 101.12 114.095 101.615C114.095 102.109 113.679 102.805 113.679 103.433C113.679 104.064 114.027 104.412 114.655 104.48C115.286 104.548 116.197 104.344 116.051 104.975C115.914 105.603 115.354 107.076 114.86 107.346C114.365 107.626 113.737 107.346 113.737 107.346L92.4428 110C92.4428 110 92.1628 108.335 91.8147 107.841C91.464 107.346 91.2521 106.93 91.3202 106.446C91.3883 105.951 90.5558 103.648 90.1295 102.815C89.7031 101.983 87.4756 100.366 87.0492 99.947C86.633 99.5308 81.7338 97.1519 81.7338 97.1519C81.7338 97.1519 81.6657 96.1049 81.4538 95.6105C81.2394 95.116 80.755 93.9354 80.1269 93.9354C79.4962 93.9354 78.868 94.5661 78.868 94.5661C78.868 94.5661 77.473 94.0035 77.0466 93.8673C76.6203 93.7336 75.1596 93.451 74.9452 93.1029C74.7333 92.7547 73.4744 90.7315 72.1475 90.449C70.8205 90.169 70.1898 90.1008 69.6979 90.169C69.2035 90.2371 68.7191 90.0327 68.1565 89.7527C67.5965 89.4727 65.707 89.4046 65.0107 89.5383C64.3144 89.6745 64.3144 89.6745 64.3144 89.6745L62.9193 87.6513L63.4819 86.8869L62.8512 86.0443L63.4819 85.2799L62.7175 84.4373L63.4819 83.7385L62.9875 82.6159C62.9875 82.6159 63.2675 82.3359 63.1994 81.9852C63.1313 81.6371 62.435 81.4252 62.155 81.4933C61.8749 81.5589 61.1761 80.7945 61.108 80.3C61.0399 79.8081 61.6706 79.9519 61.7387 79.6719C61.8068 79.3919 61.2442 78.5493 60.7599 78.413C60.2654 78.2768 59.9955 78.5493 59.4329 77.5023C58.8729 76.4579 59.3648 76.1779 58.7367 76.1098C58.106 76.0417 58.0404 75.9736 57.6897 75.1991C57.3416 74.4347 56.779 74.5028 56.499 73.6602C56.219 72.8176 57.0616 72.9614 56.7134 72.6133C56.3628 72.2652 55.2402 71.1425 54.8239 70.7919C54.4077 70.4437 53.3532 69.253 53.3532 69.253L53.1387 66.0391C53.1387 66.0391 53.6332 66.3191 54.0494 65.7565C54.4657 65.1965 54.4657 65.1965 54.4657 65.1965C54.4657 65.1965 55.0283 64.982 54.8138 64.4296C54.6019 63.8796 53.9712 63.3852 53.9712 63.3852C53.9712 63.3852 54.1857 63.1707 53.9031 62.8226C53.6231 62.4744 52.3643 62.6107 52.3643 62.6107L49.8466 60.151C49.8466 60.151 49.6321 60.1611 49.8466 59.0082C50.0585 57.8553 50.611 57.7115 50.341 57.2953C50.0686 56.879 49.4303 56.1702 49.2941 55.4739C49.1579 54.7776 49.1579 54.0788 49.6422 54.1469C50.1367 54.215 50.6892 55.4739 51.2492 55.7539C51.8118 56.0364 51.668 56.0365 52.3743 56.5208C53.0706 57.0127 52.1599 56.3846 51.6755 55.3276C51.1836 54.2832 50.833 53.8568 51.0474 53.2261C51.2593 52.598 51.5418 52.3835 51.6755 52.0354C51.8118 51.6873 51.61 51.271 51.1155 51.6192C50.621 51.9673 50.621 52.318 50.4848 52.8099C50.3511 53.3043 50.1367 53.7887 49.7885 53.7887C49.4404 53.7887 48.4616 52.6661 47.9671 52.4617C47.4727 52.2498 47.1245 51.3391 46.7083 51.3391C46.292 51.3391 45.7976 51.2029 45.7976 51.2029L46.5645 49.8759C46.5645 49.8759 46.07 48.9652 45.7976 48.6852C45.5176 48.4052 45.1694 48.1908 45.1013 47.5626C45.0332 46.9319 45.0332 46.5838 45.0332 46.5838C45.0332 46.5838 43.6407 46.2357 43.2824 45.3931C42.9242 44.5505 42.9343 44.1342 42.3717 43.5061C41.8092 42.8754 41.181 42.7417 40.8985 41.9672C40.6184 41.2003 41.181 40.0096 40.8985 39.3133C40.6184 38.6145 40.2022 38.4707 40.2703 37.56C40.3384 36.6493 41.2491 35.6049 41.1129 34.9742C40.9767 34.346 39.6396 31.6139 39.574 31.4121C39.5059 31.2078 39.574 30.287 39.574 30.287C39.574 30.287 36.8621 28.352 36.8621 27.8576C36.8621 27.3631 37.1421 27.0932 37.2783 26.7325C37.4146 26.3843 36.8621 26.0362 36.8621 26.0362C36.8621 26.0362 37.8409 23.2385 38.189 22.9585C38.5372 22.6784 38.9534 23.1704 39.1653 22.6784C39.3798 22.184 39.3798 22.184 39.3798 22.184L39.0316 22.0477C39.0316 22.0477 39.7279 20.7208 39.8717 20.2945C40.018 19.8681 39.2435 19.3182 39.4555 18.7556C39.6699 18.193 40.4343 17.4286 40.6462 16.2379C40.8606 15.0472 40.1542 13.1577 39.8036 12.8776C39.4555 12.5976 39.5917 11.8988 39.5917 11.8988L40.2804 10.592Z" fill="#FFFFFE"/>
<path fill-rule="evenodd" clip-rule="evenodd" d="M83.6915 3.75C47.4802 40.7962 14.3392 75.7158 0 95.0273C11.5667 103.627 14.1399 105.522 14.1399 105.522C14.1399 105.522 39.4 57.1612 83.6915 3.75Z" fill="#ED9F2E"/>
<path fill-rule="evenodd" clip-rule="evenodd" d="M94.3248 0.0617676C74.9351 28.4298 57.3088 55.0572 50.1695 69.3182C58.7139 73.6043 60.6136 74.5453 60.6136 74.5453C60.6136 74.5453 71.5445 40.047 94.3248 0.0617676Z" fill="#ED9F2E"/>
<path fill-rule="evenodd" clip-rule="evenodd" d="M112.66 28.8338C112.978 25.5189 110.889 24.2904 108.301 24.2904C102.804 24.2904 100.079 29.3333 98.8077 35.3298C98.3511 37.3278 96.6709 45.5948 103.712 45.5948C108.528 45.5948 109.754 42.0958 110.208 40.8243H119.655C117.43 51.0918 106.802 51.9546 102.531 51.9546C99.3526 51.9546 93.8556 51.4097 90.9948 47.5928C88.2223 43.7784 88.7243 38.5539 89.4509 35.1457C90.4045 30.6502 92.4025 26.1547 96.2168 22.6556C100.397 18.8413 104.938 17.8423 109.708 17.8423C115.024 17.8423 118.793 19.1137 120.793 21.8383C122.837 24.6537 122.246 27.6078 122.017 28.8338H112.66Z" fill="#FFFFFE"/>
<path fill-rule="evenodd" clip-rule="evenodd" d="M130.773 43.9146C130.41 45.5947 131.182 47.0024 133.228 47.0024C134.136 47.0024 135.816 46.6391 137.042 44.8228C138.041 43.3697 138.45 41.5054 138.586 40.5543C134.953 40.5997 131.457 40.6426 130.773 43.9146ZM136.588 51.3188C136.588 50.4989 136.724 49.4999 136.997 48.0468C135.634 49.5932 133.407 51.7729 128.73 51.7729C123.144 51.7729 121.326 48.7279 122.188 44.6865C123.505 38.463 129.774 36.1925 139.494 36.6012C140.039 34.1466 140.221 31.8786 137.632 31.8786C136.043 31.8786 134.363 32.7389 133.863 35.3297H125.685C125.96 34.2853 126.368 32.3302 128.457 30.5593C130.637 28.7429 134.406 27.6985 138.541 27.6985C140.587 27.6985 144.855 27.9709 146.762 30.3322C147.943 31.7399 148.034 33.8766 147.489 36.3287L145.218 46.957C144.9 48.5942 144.855 49.0458 144.764 51.3188H136.588Z" fill="#FFFFFE"/>
<path fill-rule="evenodd" clip-rule="evenodd" d="M157.156 18.5234H165.695L158.745 51.3189H150.206L157.156 18.5234Z" fill="#FFFFFE"/>
<path fill-rule="evenodd" clip-rule="evenodd" d="M179.225 36.6462L178.044 42.0524H165.145L166.326 36.6462H179.225Z" fill="#FFFFFE"/>
<path fill-rule="evenodd" clip-rule="evenodd" d="M186.99 18.5234H196.346L189.396 51.3189H180.039L186.99 18.5234Z" fill="#FFFFFE"/>
<path fill-rule="evenodd" clip-rule="evenodd" d="M208.468 25.0169H198.476L199.838 18.5234H229.225L227.863 25.0169H217.646L212.058 51.3189H202.883L208.468 25.0169Z" fill="#FFFFFE"/>
<path fill-rule="evenodd" clip-rule="evenodd" d="M239.028 33.241H243.072C245.295 33.241 248.885 33.241 249.795 28.8338C250.656 24.8378 247.477 24.6108 244.843 24.6108H240.847L239.028 33.241ZM232.989 18.5234H248.067C250.613 18.5234 253.928 18.5234 256.289 20.2036C258.696 21.8837 259.922 24.8378 259.016 29.1063C257.79 34.8758 253.564 37.3733 252.157 38.0544C249.296 39.4621 245.343 39.4621 243.572 39.4621L237.666 39.5075L235.169 51.3189H226.039L232.989 18.5234Z" fill="#FFFFFE"/>
</svg>
