<svg width="548" height="111" viewBox="0 0 548 111" fill="none" xmlns="http://www.w3.org/2000/svg">
<path fill-rule="evenodd" clip-rule="evenodd" d="M40.2804 11.592L71.3906 14.1097L70.0662 43.613L113.833 85.1447C113.833 85.1447 113.833 86.7542 114.181 87.1704C114.532 87.5867 115.372 88.1467 115.576 88.563C115.791 88.9792 115.576 90.1044 115.924 90.5206C116.275 90.9369 118.19 91.9132 118.19 91.9132C118.19 91.9132 117.534 92.8239 117.183 93.172C116.835 93.5226 115.508 94.2189 115.228 94.8471C114.948 95.4778 114.88 97.0847 115.014 97.7154C115.15 98.3436 115.296 99.3224 115.014 99.6024C114.734 99.885 114.171 100.581 113.891 100.793C113.611 101.008 113.331 101.008 113.397 101.356C113.465 101.704 114.095 102.12 114.095 102.615C114.095 103.109 113.679 103.805 113.679 104.433C113.679 105.064 114.027 105.412 114.655 105.48C115.286 105.548 116.197 105.344 116.05 105.975C115.914 106.603 115.354 108.076 114.86 108.346C114.365 108.626 113.737 108.346 113.737 108.346L92.4428 111C92.4428 111 92.1628 109.335 91.8146 108.841C91.464 108.346 91.2521 107.93 91.3202 107.446C91.3883 106.951 90.5558 104.648 90.1295 103.815C89.7031 102.983 87.4755 101.366 87.0492 100.947C86.633 100.531 81.7338 98.1519 81.7338 98.1519C81.7338 98.1519 81.6657 97.1049 81.4538 96.6105C81.2394 96.116 80.755 94.9354 80.1268 94.9354C79.4962 94.9354 78.868 95.5661 78.868 95.5661C78.868 95.5661 77.4729 95.0035 77.0466 94.8673C76.6202 94.7336 75.1596 94.451 74.9452 94.1029C74.7332 93.7547 73.4744 91.7315 72.1474 91.449C70.8205 91.169 70.1898 91.1008 69.6979 91.169C69.2034 91.2371 68.7191 91.0327 68.1565 90.7527C67.5964 90.4727 65.7069 90.4046 65.0107 90.5383C64.3144 90.6745 64.3144 90.6745 64.3144 90.6745L62.9193 88.6513L63.4819 87.8869L62.8512 87.0443L63.4819 86.2799L62.7175 85.4373L63.4819 84.7385L62.9874 83.6159C62.9874 83.6159 63.2674 83.3359 63.1993 82.9852C63.1312 82.6371 62.4349 82.4252 62.1549 82.4933C61.8749 82.5589 61.1761 81.7945 61.108 81.3C61.0399 80.8081 61.6706 80.9519 61.7387 80.6719C61.8068 80.3919 61.2442 79.5493 60.7599 79.413C60.2654 79.2768 59.9955 79.5493 59.4329 78.5023C58.8729 77.4579 59.3648 77.1779 58.7366 77.1098C58.1059 77.0417 58.0404 76.9736 57.6897 76.1991C57.3416 75.4347 56.779 75.5028 56.499 74.6602C56.2189 73.8176 57.0615 73.9614 56.7134 73.6133C56.3627 73.2652 55.2401 72.1425 54.8239 71.7919C54.4076 71.4437 53.3531 70.253 53.3531 70.253L53.1387 67.0391C53.1387 67.0391 53.6332 67.3191 54.0494 66.7565C54.4657 66.1965 54.4657 66.1965 54.4657 66.1965C54.4657 66.1965 55.0282 65.982 54.8138 65.4296C54.6019 64.8796 53.9712 64.3852 53.9712 64.3852C53.9712 64.3852 54.1856 64.1707 53.9031 63.8226C53.6231 63.4744 52.3642 63.6107 52.3642 63.6107L49.8465 61.151C49.8465 61.151 49.6321 61.1611 49.8465 60.0082C50.0584 58.8553 50.6109 58.7115 50.341 58.2953C50.0685 57.879 49.4303 57.1702 49.2941 56.4739C49.1578 55.7776 49.1578 55.0788 49.6422 55.1469C50.1367 55.215 50.6891 56.4739 51.2492 56.7539C51.8117 57.0364 51.6679 57.0365 52.3743 57.5208C53.0706 58.0127 52.1599 57.3846 51.6755 56.3276C51.1836 55.2832 50.8329 54.8568 51.0474 54.2261C51.2593 53.598 51.5418 53.3835 51.6755 53.0354C51.8117 52.6873 51.6099 52.271 51.1155 52.6192C50.621 52.9673 50.621 53.318 50.4848 53.8099C50.3511 54.3043 50.1367 54.7887 49.7885 54.7887C49.4404 54.7887 48.4616 53.6661 47.9671 53.4617C47.4727 53.2498 47.1245 52.3391 46.7083 52.3391C46.292 52.3391 45.7976 52.2029 45.7976 52.2029L46.5645 50.8759C46.5645 50.8759 46.07 49.9652 45.7976 49.6852C45.5175 49.4052 45.1694 49.1908 45.1013 48.5626C45.0332 47.9319 45.0332 47.5838 45.0332 47.5838C45.0332 47.5838 43.6406 47.2357 43.2824 46.3931C42.9242 45.5505 42.9343 45.1342 42.3717 44.5061C41.8091 43.8754 41.181 43.7417 40.8984 42.9672C40.6184 42.2003 41.181 41.0096 40.8984 40.3133C40.6184 39.6145 40.2022 39.4707 40.2703 38.56C40.3384 37.6493 41.2491 36.6049 41.1129 35.9742C40.9766 35.346 39.6396 32.6139 39.574 32.4121C39.5059 32.2078 39.574 31.287 39.574 31.287C39.574 31.287 36.8621 29.352 36.8621 28.8576C36.8621 28.3631 37.1421 28.0932 37.2783 27.7325C37.4145 27.3843 36.8621 27.0362 36.8621 27.0362C36.8621 27.0362 37.8409 24.2385 38.189 23.9585C38.5371 23.6784 38.9534 24.1704 39.1653 23.6784C39.3797 23.184 39.3797 23.184 39.3797 23.184L39.0316 23.0477C39.0316 23.0477 39.7279 21.7208 39.8717 21.2945C40.018 20.8681 39.2435 20.3182 39.4554 19.7556C39.6699 19.193 40.4342 18.4286 40.6461 17.2379C40.8606 16.0472 40.1542 14.1577 39.8036 13.8776C39.4554 13.5976 39.5917 12.8988 39.5917 12.8988L40.2804 11.592Z" fill="#FFFFFE"/>
<path fill-rule="evenodd" clip-rule="evenodd" d="M83.6915 4.75C47.4802 41.7962 14.3392 76.7158 0 96.0273C11.5667 104.627 14.1399 106.522 14.1399 106.522C14.1399 106.522 39.4 58.1612 83.6915 4.75Z" fill="#ED9F2E"/>
<path fill-rule="evenodd" clip-rule="evenodd" d="M94.3247 1.06177C74.935 29.4298 57.3088 56.0572 50.1694 70.3182C58.7139 74.6043 60.6135 75.5453 60.6135 75.5453C60.6135 75.5453 71.5445 41.047 94.3247 1.06177Z" fill="#ED9F2E"/>
<path fill-rule="evenodd" clip-rule="evenodd" d="M112.66 29.8338C112.978 26.5189 110.889 25.2904 108.301 25.2904C102.804 25.2904 100.079 30.3333 98.8077 36.3298C98.3511 38.3278 96.6709 46.5948 103.712 46.5948C108.528 46.5948 109.754 43.0958 110.208 41.8243H119.655C117.43 52.0918 106.802 52.9546 102.531 52.9546C99.3526 52.9546 93.8556 52.4097 90.9948 48.5928C88.2223 44.7784 88.7243 39.5539 89.4509 36.1457C90.4045 31.6502 92.4025 27.1547 96.2168 23.6556C100.397 19.8413 104.938 18.8423 109.708 18.8423C115.024 18.8423 118.793 20.1137 120.793 22.8383C122.837 25.6537 122.246 28.6078 122.017 29.8338H112.66Z" fill="#FFFFFE"/>
<path fill-rule="evenodd" clip-rule="evenodd" d="M130.773 44.9146C130.41 46.5947 131.182 48.0024 133.228 48.0024C134.136 48.0024 135.816 47.6391 137.042 45.8228C138.041 44.3697 138.45 42.5054 138.586 41.5543C134.953 41.5997 131.457 41.6426 130.773 44.9146ZM136.588 52.3188C136.588 51.4989 136.724 50.4999 136.997 49.0468C135.634 50.5932 133.407 52.7729 128.73 52.7729C123.144 52.7729 121.326 49.7279 122.188 45.6865C123.505 39.463 129.774 37.1925 139.494 37.6012C140.039 35.1466 140.221 32.8786 137.632 32.8786C136.043 32.8786 134.363 33.7389 133.863 36.3297H125.685C125.96 35.2853 126.368 33.3302 128.457 31.5593C130.637 29.7429 134.406 28.6985 138.541 28.6985C140.587 28.6985 144.855 28.9709 146.762 31.3322C147.943 32.7399 148.034 34.8766 147.489 37.3287L145.218 47.957C144.9 49.5942 144.855 50.0458 144.764 52.3188H136.588Z" fill="#FFFFFE"/>
<path fill-rule="evenodd" clip-rule="evenodd" d="M157.156 19.5234H165.695L158.745 52.3189H150.206L157.156 19.5234Z" fill="#FFFFFE"/>
<path fill-rule="evenodd" clip-rule="evenodd" d="M179.225 37.6462L178.044 43.0524H165.145L166.326 37.6462H179.225Z" fill="#FFFFFE"/>
<path fill-rule="evenodd" clip-rule="evenodd" d="M186.99 19.5234H196.346L189.396 52.3189H180.039L186.99 19.5234Z" fill="#FFFFFE"/>
<path fill-rule="evenodd" clip-rule="evenodd" d="M208.468 26.0169H198.476L199.838 19.5234H229.225L227.863 26.0169H217.646L212.058 52.3189H202.883L208.468 26.0169Z" fill="#FFFFFE"/>
<path fill-rule="evenodd" clip-rule="evenodd" d="M239.028 34.241H243.072C245.295 34.241 248.885 34.241 249.795 29.8338C250.656 25.8378 247.477 25.6108 244.843 25.6108H240.847L239.028 34.241ZM232.989 19.5234H248.067C250.613 19.5234 253.928 19.5234 256.289 21.2036C258.696 22.8837 259.922 25.8378 259.016 30.1063C257.79 35.8758 253.564 38.3733 252.157 39.0544C249.296 40.4621 245.343 40.4621 243.572 40.4621L237.666 40.5075L235.169 52.3189H226.039L232.989 19.5234Z" fill="#FFFFFE"/>
<path fill-rule="evenodd" clip-rule="evenodd" d="M134.348 74.0845C134.378 72.8433 134.287 71.6046 133.712 70.9084C133.137 70.2121 131.835 69.9699 131.26 69.9699C128.962 69.9699 128.054 71.3599 127.963 71.6652C127.872 71.9049 127.327 72.4498 127.327 76.2011V82.0412C127.327 87.3969 129.083 88.0326 131.232 88.0326C132.077 88.0326 134.651 87.7299 134.681 83.464H137.554C137.675 90.3611 132.804 90.3611 131.381 90.3611C128.659 90.3611 124.484 90.182 124.484 81.7082V75.5376C124.484 69.3645 127.206 67.6086 131.505 67.6086C135.829 67.6086 137.494 69.8488 137.221 74.0845H134.348Z" fill="#FFFFFE"/>
<path fill-rule="evenodd" clip-rule="evenodd" d="M143.553 85.3712C143.553 86.852 144.28 88.184 145.945 88.184C147.456 88.184 149.333 87.2456 149.091 82.3136C146.732 82.3439 143.553 82.132 143.553 85.3712ZM149.151 87.6996H149.091C148.334 89.4555 147.156 90.2123 145.249 90.2123C142.012 90.2123 141.073 88.1235 141.073 85.187C141.073 80.5578 145.612 80.3459 149.091 80.4392C149.151 78.411 149.181 76.201 146.52 76.201C144.855 76.201 143.977 77.3211 144.128 78.9256H141.437C141.558 75.5073 143.372 74.3267 146.608 74.3267C150.544 74.3267 151.573 76.3524 151.573 78.9256V86.2768C151.573 87.4877 151.694 88.7289 151.873 89.907H149.151V87.6996Z" fill="#FFFFFE"/>
<path fill-rule="evenodd" clip-rule="evenodd" d="M156.361 89.9075H158.841V68.0632H156.361V89.9075Z" fill="#FFFFFE"/>
<path fill-rule="evenodd" clip-rule="evenodd" d="M163.082 89.91H165.562V74.6299H163.082V89.91ZM162.93 70.7247H165.713V68.0632H162.93V70.7247Z" fill="#FFFFFE"/>
<path fill-rule="evenodd" clip-rule="evenodd" d="M170.314 74.6294V71.6652C170.314 68.5774 172.494 67.9719 174.701 67.9719C175.216 67.9719 175.519 68.0022 175.882 68.0627V69.8488C173.251 69.6672 172.797 70.7848 172.797 72.0285V74.6294H175.882V76.5063H172.797V89.907H170.314V76.5063H167.956V74.6294H170.314Z" fill="#FFFFFE"/>
<path fill-rule="evenodd" clip-rule="evenodd" d="M186.868 81.4357C186.868 77.2606 185.569 76.3524 183.662 76.3524C181.757 76.3524 180.456 77.2606 180.456 81.4357C180.456 86.3979 181.091 88.184 183.662 88.184C186.233 88.184 186.868 86.3979 186.868 81.4357ZM177.855 82.4953C177.855 78.0174 178.367 74.3267 183.662 74.3267C188.957 74.3267 189.472 78.0174 189.472 82.4953C189.472 89.2435 186.901 90.2123 183.662 90.2123C180.425 90.2123 177.855 89.2435 177.855 82.4953Z" fill="#FFFFFE"/>
<path fill-rule="evenodd" clip-rule="evenodd" d="M195.986 76.9276H196.046C197.075 74.5991 198.344 74.3267 200.766 74.3267V76.8973C200.554 76.8696 200.312 76.8368 200.1 76.8065C199.888 76.7762 199.676 76.746 199.434 76.746C196.682 76.746 195.986 78.8348 195.986 80.8908V89.907H193.503V74.6294H195.986V76.9276Z" fill="#FFFFFE"/>
<path fill-rule="evenodd" clip-rule="evenodd" d="M211.785 89.907V79.3191C211.785 77.6844 211.21 76.3524 209.091 76.3524C206.369 76.3524 205.976 78.7742 205.976 80.8631V89.907H203.493V77.8055C203.493 76.746 203.433 75.6889 203.344 74.6294H205.976V76.5946H206.097C207.065 74.8716 208.213 74.3267 210.181 74.3267C213.448 74.3267 214.265 76.2944 214.265 79.3191V89.907H211.785Z" fill="#FFFFFE"/>
<path fill-rule="evenodd" clip-rule="evenodd" d="M218.569 89.91H221.051V74.6299H218.569V89.91ZM218.42 70.7247H221.203V68.0632H218.42V70.7247Z" fill="#FFFFFE"/>
<path fill-rule="evenodd" clip-rule="evenodd" d="M227.621 85.3712C227.621 86.852 228.347 88.184 230.01 88.184C231.523 88.184 233.4 87.2456 233.158 82.3136C230.797 82.3439 227.621 82.132 227.621 85.3712ZM233.219 87.6996H233.158C232.401 89.4555 231.221 90.2123 229.313 90.2123C226.077 90.2123 225.141 88.1235 225.141 85.187C225.141 80.5578 229.679 80.3459 233.158 80.4392C233.219 78.411 233.249 76.201 230.585 76.201C228.922 76.201 228.044 77.3211 228.196 78.9256H225.502C225.625 75.5073 227.439 74.3267 230.678 74.3267C234.611 74.3267 235.638 76.3524 235.638 78.9256V86.2768C235.638 87.4877 235.759 88.7289 235.941 89.907H233.219V87.6996Z" fill="#FFFFFE"/>
<path fill-rule="evenodd" clip-rule="evenodd" d="M247.84 89.9075H250.623V68.0632H247.84V89.9075Z" fill="#FFFFFE"/>
<path fill-rule="evenodd" clip-rule="evenodd" d="M263.913 89.907V79.3191C263.913 77.6844 263.34 76.3524 261.221 76.3524C258.499 76.3524 258.105 78.7742 258.105 80.8631V89.907H255.623V77.8055C255.623 76.746 255.565 75.6889 255.474 74.6294H258.105V76.5946H258.224C259.193 74.8716 260.343 74.3267 262.311 74.3267C265.58 74.3267 266.395 76.2944 266.395 79.3191V89.907H263.913Z" fill="#FFFFFE"/>
<path fill-rule="evenodd" clip-rule="evenodd" d="M271.034 74.6295V71.693L273.514 70.5754V74.6295H276.842V76.5064H273.514V85.8556C273.514 86.8218 273.514 88.063 275.782 88.063C275.966 88.063 276.357 88.0024 276.902 87.9419V89.8491C276.087 89.9071 275.267 90.0887 274.453 90.0887C272.094 90.0887 271.034 89.12 271.034 87.3667V76.5064H268.522V74.6295H271.034Z" fill="#FFFFFE"/>
<path fill-rule="evenodd" clip-rule="evenodd" d="M287.556 81.1935C287.556 76.746 286.317 76.201 284.503 76.201C282.926 76.201 281.627 76.9579 281.597 81.1935H287.556ZM281.597 83.0704C281.597 87.3364 282.745 88.184 284.682 88.184C286.377 88.184 287.253 86.8217 287.344 85.2803H290.068C290.038 88.6684 287.952 90.2123 284.743 90.2123C281.506 90.2123 278.933 89.2435 278.933 82.4953C278.933 78.0174 279.45 74.3267 284.743 74.3267C289.102 74.3267 290.189 76.7157 290.189 81.7687V83.0704H281.597Z" fill="#FFFFFE"/>
<path fill-rule="evenodd" clip-rule="evenodd" d="M299.486 76.3852C296.673 76.3852 296.582 79.7732 296.582 81.799C296.582 86.7006 297.702 87.851 299.546 87.851C302.543 87.851 302.452 84.3116 302.452 82.1925C302.452 79.9221 302.601 76.3852 299.486 76.3852ZM302.389 74.6294H304.872V91.4509C304.872 94.8692 302.601 95.6866 299.243 95.6866C296.7 95.6866 294.402 94.4177 294.614 91.6023H297.399C297.43 93.0251 298.368 93.8122 299.73 93.8122C301.453 93.8122 302.389 92.7527 302.389 91.1785V88.0024H302.301C301.665 89.2133 300.273 89.907 298.941 89.907C294.798 89.907 293.978 86.3374 293.978 81.799C293.978 74.7808 297.52 74.3267 298.762 74.3267C300.366 74.3267 301.635 75.0229 302.331 76.5063H302.389V74.6294Z" fill="#FFFFFE"/>
<path fill-rule="evenodd" clip-rule="evenodd" d="M312.021 76.9276H312.082C313.108 74.5991 314.38 74.3267 316.802 74.3267V76.8973C316.59 76.8696 316.347 76.8368 316.136 76.8065C315.924 76.7762 315.712 76.746 315.47 76.746C312.717 76.746 312.021 78.8348 312.021 80.8908V89.907H309.539V74.6294H312.021V76.9276Z" fill="#FFFFFE"/>
<path fill-rule="evenodd" clip-rule="evenodd" d="M321.797 85.3712C321.797 86.852 322.523 88.184 324.188 88.184C325.702 88.184 327.576 87.2456 327.334 82.3136C324.973 82.3439 321.797 82.132 321.797 85.3712ZM327.392 87.6996H327.334C326.577 89.4555 325.397 90.2123 323.492 90.2123C320.253 90.2123 319.314 88.1235 319.314 85.187C319.314 80.5578 323.853 80.3459 327.334 80.4392C327.392 78.411 327.425 76.201 324.761 76.201C323.096 76.201 322.22 77.3211 322.372 78.9256H319.68C319.801 75.5073 321.615 74.3267 324.854 74.3267C328.785 74.3267 329.814 76.3524 329.814 78.9256V86.2768C329.814 87.4877 329.935 88.7289 330.119 89.907H327.392V87.6996Z" fill="#FFFFFE"/>
<path fill-rule="evenodd" clip-rule="evenodd" d="M334.937 74.6295V71.693L337.417 70.5754V74.6295H340.745V76.5064H337.417V85.8556C337.417 86.8218 337.417 88.063 339.688 88.063C339.869 88.063 340.26 88.0024 340.805 87.9419V89.8491C339.99 89.9071 339.171 90.0887 338.356 90.0887C335.997 90.0887 334.937 89.12 334.937 87.3667V76.5064H332.425V74.6295H334.937Z" fill="#FFFFFE"/>
<path fill-rule="evenodd" clip-rule="evenodd" d="M351.461 81.1935C351.461 76.746 350.22 76.201 348.406 76.201C346.832 76.201 345.53 76.9579 345.5 81.1935H351.461ZM345.5 83.0704C345.5 87.3364 346.648 88.184 348.585 88.184C350.281 88.184 351.156 86.8217 351.249 85.2803H353.974C353.941 88.6684 351.855 90.2123 348.646 90.2123C345.409 90.2123 342.839 89.2435 342.839 82.4953C342.839 78.0174 343.353 74.3267 348.646 74.3267C353.003 74.3267 354.093 76.7157 354.093 81.7687V83.0704H345.5Z" fill="#FFFFFE"/>
<path fill-rule="evenodd" clip-rule="evenodd" d="M363.422 76.3529C360.758 76.3529 360.394 78.472 360.394 82.5563C360.394 84.857 360.394 88.1845 363.51 88.1845C366.292 88.1845 366.292 84.7359 366.292 81.6481C366.292 79.6224 366.174 76.3529 363.422 76.3529ZM366.292 68.0632H368.775V89.9075H366.292V88.0937H366.234C365.387 89.5165 364.327 90.2128 362.723 90.2128C360.273 90.2128 357.791 89.2441 357.791 82.526C357.791 78.7142 357.912 74.3272 362.844 74.3272C364.297 74.3272 365.356 74.9629 366.202 76.1738H366.292V68.0632Z" fill="#FFFFFE"/>
<path fill-rule="evenodd" clip-rule="evenodd" d="M392.599 68.0632V70.4851H386.85V89.9075H384.065V70.4851H378.318V68.0632H392.599Z" fill="#FFFFFE"/>
<path fill-rule="evenodd" clip-rule="evenodd" d="M395.359 76.9276H395.42C396.449 74.5991 397.718 74.3267 400.14 74.3267V76.8973C399.928 76.8696 399.686 76.8368 399.474 76.8065C399.262 76.7762 399.05 76.746 398.808 76.746C396.056 76.746 395.359 78.8348 395.359 80.8908V89.907H392.877V74.6294H395.359V76.9276Z" fill="#FFFFFE"/>
<path fill-rule="evenodd" clip-rule="evenodd" d="M405.137 85.3712C405.137 86.852 405.864 88.184 407.529 88.184C409.043 88.184 410.917 87.2456 410.675 82.3136C408.316 82.3439 405.137 82.132 405.137 85.3712ZM410.735 87.6996H410.675C409.918 89.4555 408.74 90.2123 406.833 90.2123C403.596 90.2123 402.655 88.1235 402.655 85.187C402.655 80.5578 407.193 80.3459 410.675 80.4392C410.735 78.411 410.766 76.201 408.104 76.201C406.437 76.201 405.561 77.3211 405.713 78.9256H403.021C403.142 75.5073 404.958 74.3267 408.195 74.3267C412.125 74.3267 413.157 76.3524 413.157 78.9256V86.2768C413.157 87.4877 413.276 88.7289 413.46 89.907H410.735V87.6996Z" fill="#FFFFFE"/>
<path fill-rule="evenodd" clip-rule="evenodd" d="M416.25 74.6299H419.035L422.453 87.579H422.514L426.202 74.6299H428.808L424.025 89.9075H420.788L416.25 74.6299Z" fill="#FFFFFE"/>
<path fill-rule="evenodd" clip-rule="evenodd" d="M439.827 81.1935C439.827 76.746 438.589 76.201 436.772 76.201C435.198 76.201 433.896 76.9579 433.869 81.1935H439.827ZM433.869 83.0704C433.869 87.3364 435.017 88.184 436.951 88.184C438.647 88.184 439.525 86.8217 439.615 85.2803H442.338C442.307 88.6684 440.221 90.2123 437.015 90.2123C433.775 90.2123 431.205 89.2435 431.205 82.4953C431.205 78.0174 431.719 74.3267 437.015 74.3267C441.371 74.3267 442.461 76.7157 442.461 81.7687V83.0704H433.869Z" fill="#FFFFFE"/>
<path fill-rule="evenodd" clip-rule="evenodd" d="M446.523 89.9075H449.005V68.0632H446.523V89.9075Z" fill="#FFFFFE"/>
<path fill-rule="evenodd" clip-rule="evenodd" d="M463.44 77.8666H466.495C467.646 77.8666 470.368 77.5638 470.368 74.1455C470.368 70.8181 467.888 70.4851 467.285 70.4851H463.44V77.8666ZM460.658 89.9075V68.0632H467.131C470.067 68.0632 473.213 69.1531 473.213 74.2969C473.213 79.2591 469.341 80.2884 467.101 80.2884H463.44V89.9075H460.658Z" fill="#FFFFFE"/>
<path fill-rule="evenodd" clip-rule="evenodd" d="M479.424 76.9276H479.487C480.514 74.5991 481.785 74.3267 484.207 74.3267V76.8973C483.995 76.8696 483.751 76.8368 483.539 76.8065C483.327 76.7762 483.115 76.746 482.873 76.746C480.12 76.746 479.424 78.8348 479.424 80.8908V89.907H476.944V74.6294H479.424V76.9276Z" fill="#FFFFFE"/>
<path fill-rule="evenodd" clip-rule="evenodd" d="M495.527 81.4357C495.527 77.2606 494.225 76.3524 492.318 76.3524C490.416 76.3524 489.111 77.2606 489.111 81.4357C489.111 86.3979 489.747 88.184 492.318 88.184C494.891 88.184 495.527 86.3979 495.527 81.4357ZM486.51 82.4953C486.51 78.0174 487.025 74.3267 492.318 74.3267C497.616 74.3267 498.128 78.0174 498.128 82.4953C498.128 89.2435 495.557 90.2123 492.318 90.2123C489.081 90.2123 486.51 89.2435 486.51 82.4953Z" fill="#FFFFFE"/>
<path fill-rule="evenodd" clip-rule="evenodd" d="M501.859 70.7247H504.641V68.0632H501.859V70.7247ZM502.01 74.6299H504.492V92.0266C504.492 94.4459 503.794 95.6871 500.166 95.6871V93.5705C501.223 93.5705 502.01 93.4192 502.01 92.1477V74.6299Z" fill="#FFFFFE"/>
<path fill-rule="evenodd" clip-rule="evenodd" d="M517.172 81.1935C517.172 76.746 515.933 76.201 514.117 76.201C512.542 76.201 511.241 76.9579 511.213 81.1935H517.172ZM511.213 83.0704C511.213 87.3364 512.361 88.184 514.296 88.184C515.991 88.184 516.869 86.8217 516.96 85.2803H519.684C519.652 88.6684 517.565 90.2123 514.359 90.2123C511.122 90.2123 508.549 89.2435 508.549 82.4953C508.549 78.0174 509.064 74.3267 514.359 74.3267C518.713 74.3267 519.805 76.7157 519.805 81.7687V83.0704H511.213Z" fill="#FFFFFE"/>
<path fill-rule="evenodd" clip-rule="evenodd" d="M531.915 79.531C531.975 77.0184 530.736 76.3524 529.798 76.3524C527.891 76.3524 526.589 77.2606 526.589 81.4357C526.589 86.3979 527.225 88.184 529.798 88.184C530.371 88.184 532.096 87.5785 532.005 84.8263H534.609C534.697 89.1199 531.493 90.2123 529.798 90.2123C526.561 90.2123 523.988 89.2435 523.988 82.4953C523.988 78.0174 524.503 74.3267 529.798 74.3267C532.853 74.3267 534.639 76.1128 534.485 79.531H531.915Z" fill="#FFFFFE"/>
<path fill-rule="evenodd" clip-rule="evenodd" d="M539.336 74.6295V71.693L541.819 70.5754V74.6295H545.146V76.5064H541.819V85.8556C541.819 86.8218 541.819 88.063 544.087 88.063C544.268 88.063 544.659 88.0024 545.204 87.9419V89.8491C544.389 89.9071 543.572 90.0887 542.757 90.0887C540.396 90.0887 539.336 89.12 539.336 87.3667V76.5064H536.824V74.6295H539.336Z" fill="#FFFFFE"/>
</svg>
