<svg width="92" height="92" viewBox="0 0 92 92" fill="none" xmlns="http://www.w3.org/2000/svg">
<circle cx="46" cy="46" r="46" fill="#DFE1E1"/>
<path d="M29 63.5V23L64.5 22L90.6337 56.4753C90.6337 56.4753 90.2 66.4565 77.5 79.5C65 92.5435 53 91.5 53 91.5L29 63.5Z" fill="#C4C4C4"/>
<path d="M27.0841 43.9655L27.0784 51.4458L27.1535 62.802C27.1634 64.3163 28.2756 65.5968 29.7729 65.8184C29.8388 65.8282 30.2086 65.8819 30.8205 65.9608L30.8205 70.6312C30.9977 72.3173 30.982 73.3629 34.0155 73.3629C37.049 73.3629 37.0599 72.3568 37.0599 70.6312L37.0599 66.5982C39.8841 66.8186 43.2869 66.9936 46.8243 66.9706C50.1318 66.9494 53.6923 66.7462 57.4065 66.3836L57.4065 70.6312C57.5726 72.2117 57.4065 73.3629 60.821 73.3629C63.5017 73.3629 63.5017 72.7725 63.5017 70.0409C63.5017 69.3226 63.5017 67.8589 63.5017 65.6498C63.7137 65.6175 63.8401 65.5981 63.8595 65.5949C65.3544 65.3538 66.4497 64.0585 66.4394 62.5449L66.3643 51.1893L66.3591 43.5638C67.8406 42.973 68.8838 41.522 68.8727 39.8313L68.8525 36.7615C68.8404 34.9437 67.6138 33.4203 65.9478 32.9498L65.3937 23.0093C65.2927 21.1972 63.886 19.7285 62.0802 19.5492C61.7539 19.5168 54.0043 18.7573 46.2539 18.8078C40.2121 18.8472 34.4241 19.3913 32.2153 19.6235C31.451 19.7038 31.0207 19.7564 31.0207 19.7564C29.2315 19.9747 27.8624 21.4556 27.7857 23.2561L27.3666 33.0989C25.4663 33.4178 24.0288 35.0687 24.0412 37.0544L24.0614 40.1242C24.0737 41.9846 25.3594 43.5351 27.0841 43.9655ZM31.4897 27.0955C31.4897 27.0955 31.5499 27.088 31.661 27.0757C36.1783 26.4861 40.7838 26.2588 45.3357 26.1859C45.6568 26.1812 45.9791 26.177 46.3023 26.1745C53.9478 26.1245 61.7408 26.8972 61.7408 26.8972L62.6349 42.9269L56.1552 42.9691C56.1528 42.9694 56.1508 42.9684 56.1484 42.9687L48.168 43.021C48.1655 43.0207 48.1626 43.0222 48.1601 43.0219L30.8059 43.1355L31.4897 27.0955ZM33.2288 56.5398C31.7122 56.5498 30.4759 55.3286 30.4658 53.8118C30.4559 52.2964 31.6763 51.0583 33.193 51.0482C34.7085 51.0383 35.9474 52.2598 35.9573 53.776C35.9673 55.2922 34.7444 56.5299 33.2288 56.5398ZM54.5212 58.5997C55.3523 58.4703 56.138 59.0622 56.2581 59.9008C56.3778 60.7401 55.7964 61.5174 54.9571 61.6377C54.8159 61.6581 51.5109 63.0948 46.7253 63.0948C41.9396 63.0948 38.6463 61.5032 38.505 61.4799C37.6689 61.341 37.1033 60.5519 37.242 59.7152C37.3591 59.01 37.9402 58.497 38.6215 58.4373C38.7468 58.4264 38.8759 58.4304 39.0066 58.4517C39.0391 58.4575 42.0065 60.0256 46.7587 60.0256C51.5109 60.0256 54.4889 58.6032 54.5212 58.5997ZM60.0444 56.3644C58.5289 56.3743 57.2902 55.1528 57.2801 53.6366C57.2702 52.1204 58.493 50.8827 60.0086 50.8729C61.5242 50.8629 62.7617 52.0846 62.7717 53.6008C62.7817 55.1168 61.5606 56.3544 60.0444 56.3644ZM42.3055 29.5789C42.2985 28.5617 43.1247 27.7299 44.1347 27.7256L48.432 27.698C49.4492 27.6911 50.2791 28.5106 50.2853 29.5272C50.2919 30.4825 49.5694 31.2727 48.6391 31.3705C48.5786 31.3768 48.5179 31.3801 48.4562 31.3804L44.1587 31.408C43.1416 31.415 42.3117 30.5961 42.3055 29.5789Z" fill="#47525E"/>
</svg>
