<svg width="92" height="92" viewBox="0 0 92 92" fill="none" xmlns="http://www.w3.org/2000/svg">
<circle cx="46" cy="46" r="46" fill="#DFE1E1"/>
<path d="M26.5 64.5L32 26.5H65.5L90.6336 56.4753C90.6336 56.4753 90.583 67.406 77.4257 79.2476C64.2684 91.0891 51.9207 91.0891 51.9207 91.0891L26.5 64.5Z" fill="#C4C4C4"/>
<path d="M27.3155 44.8073L26.5279 52.2461L25.4156 63.5479C25.267 65.0549 26.2394 66.4447 27.7053 66.8216C27.7697 66.8382 28.1319 66.9303 28.7323 67.0727V71.5919C28.7323 73.2874 30.1061 74.6612 31.8016 74.6612C33.4971 74.6612 34.8709 73.2874 34.8709 71.5919V68.3587C37.6566 68.8731 41.0224 69.4029 44.5429 69.7497C47.8344 70.0745 51.3966 70.2445 55.1283 70.2721V71.5919C55.1283 73.1812 56.3327 74.6612 57.8882 74.6612C58.747 74.6612 60.4223 74.6588 61.2669 74.6612C62.1147 74.6643 62.8016 73.9743 62.8016 73.1266C62.8016 72.2788 62.1147 71.5919 61.2669 71.5919V70.1794C61.4812 70.1696 61.6088 70.1635 61.6285 70.1622C63.1404 70.0788 64.3651 68.9051 64.513 67.3986L65.6253 56.0975L66.4172 48.5132C67.9525 48.0804 69.1415 46.7465 69.3073 45.0639L69.6081 42.0087C69.7861 40.1997 68.7253 38.5564 67.1176 37.9143L67.6057 27.9703C67.6947 26.1576 66.4491 24.5499 64.672 24.1828C64.351 24.1165 56.7231 22.5512 49.01 21.7912C42.9972 21.1988 37.1839 21.135 34.963 21.135C34.1944 21.135 33.761 21.1423 33.761 21.1423C31.9587 21.1724 30.4425 22.502 30.1779 24.2847L28.7323 34.0298C26.809 34.1482 25.2069 35.6399 25.0117 37.6159L24.7109 40.6711C24.5285 42.5225 25.6452 44.199 27.3155 44.8073ZM33.4602 28.4903C33.4602 28.4903 33.521 28.489 33.6327 28.4884C38.187 28.3742 42.7909 28.6296 47.3255 29.0329C47.6453 29.0618 47.9664 29.0912 48.2881 29.1225C55.8969 29.8721 63.5665 31.4552 63.5665 31.4552L62.7801 47.4905L56.3315 46.8552C56.329 46.8552 56.3272 46.8539 56.3247 46.8539L48.3826 46.0719C48.3801 46.0713 48.3771 46.0725 48.3746 46.0719L31.1036 44.3709L33.4602 28.4903ZM32.1122 57.955C30.6027 57.8064 29.5008 56.4627 29.6494 54.9532C29.7979 53.445 31.1411 52.3412 32.6505 52.4898C34.1588 52.6383 35.2631 53.9827 35.1146 55.4916C34.966 57.0004 33.6204 58.1036 32.1122 57.955ZM38.2115 64.7425C37.3724 64.7989 36.6413 64.1409 36.5946 63.295C36.5486 62.4485 37.1956 61.7247 38.0421 61.6781C38.1845 61.6701 41.5871 61.489 45.2863 61.853C48.9854 62.2177 52.2867 63.0593 52.4255 63.0949C53.2462 63.306 53.741 64.1415 53.5298 64.9628C53.3518 65.6553 52.7281 66.1157 52.0443 66.1157C51.9184 66.1157 51.7901 66.1003 51.6618 66.0678C51.6299 66.0592 48.4415 65.2477 44.9855 64.9076C41.5301 64.5669 38.2441 64.7418 38.2115 64.7425ZM58.7992 60.5836C57.2909 60.435 56.1866 59.0906 56.3352 57.5818C56.4837 56.0729 57.8293 54.9698 59.3376 55.1183C60.8458 55.2669 61.9489 56.6113 61.8004 58.1201C61.6518 59.629 60.3081 60.7321 58.7992 60.5836ZM43.9573 32.0906C44.0567 31.0783 44.9652 30.3374 45.9701 30.4387L50.2469 30.8604C51.2591 30.9598 51.9988 31.8616 51.8988 32.8732C51.8055 33.8241 51.0044 34.5343 50.0689 34.5343C50.0081 34.5343 49.9473 34.5313 49.8859 34.5251L45.6092 34.1034C44.5969 34.004 43.8572 33.1028 43.9573 32.0906Z" fill="#47525E"/>
</svg>
