<svg width="92" height="92" viewBox="0 0 92 92" fill="none" xmlns="http://www.w3.org/2000/svg">
<circle cx="46" cy="46" r="46" fill="#DFE1E1"/>
<path d="M23.6831 58.7525L68.3168 33.703L90.6336 56.4753C90.6336 56.4753 90.583 67.4059 77.4257 79.2475C64.2684 91.0891 51.9207 91.0891 51.9207 91.0891L23.6831 58.7525Z" fill="#C4C4C4"/>
<path d="M65.541 29.8811H25.5485C24.0215 29.8811 22.7725 31.1302 22.7725 32.6565V58.4324C22.7725 59.9588 24.0215 61.2078 25.5485 61.2078H65.541C67.068 61.2078 68.317 59.9588 68.317 58.4324V32.6565C68.317 31.1302 67.068 29.8811 65.541 29.8811Z" fill="#47525E"/>
<rect x="26.416" y="52.8315" width="21.8614" height="3.64356" fill="#C4C4C4"/>
<rect x="26.416" y="47.3662" width="24.5941" height="3.64356" fill="#C4C4C4"/>
<path d="M71.684 48.7207C71.4226 48.7581 71.28 48.7784 71.0186 48.8158L63.1771 59.2711L58.2889 55.605C58.0275 55.6423 57.885 55.6627 57.6236 55.7L54.728 59.5325C54.7653 59.7939 54.7857 59.9365 54.823 60.1978L63.9477 67.0413C64.2091 67.004 64.3517 66.9836 64.613 66.9463L75.6115 52.2816C75.5742 52.0203 75.5538 51.8777 75.5165 51.6163L71.684 48.7207Z" fill="#53B3E2"/>
</svg>
