<svg width="52" height="36" viewBox="0 0 52 36" fill="none" xmlns="http://www.w3.org/2000/svg">
<path d="M27 0C18.7125 0 12 0.947368 12 7.57895V25.5789C12 29.2358 14.9438 32.2105 18.5625 32.2105L15.75 35.0526V36H38.25V35.0526L35.4375 32.2105C39.0562 32.2105 42 29.2358 42 25.5789V7.57895C42 0.947368 35.2875 0 27 0ZM18.5625 28.4211C17.0062 28.4211 15.75 27.1516 15.75 25.5789C15.75 24.0063 17.0062 22.7368 18.5625 22.7368C20.1187 22.7368 21.375 24.0063 21.375 25.5789C21.375 27.1516 20.1187 28.4211 18.5625 28.4211ZM25.125 17.0526H15.75V7.57895H25.125V17.0526ZM35.4375 28.4211C33.8813 28.4211 32.625 27.1516 32.625 25.5789C32.625 24.0063 33.8813 22.7368 35.4375 22.7368C36.9937 22.7368 38.25 24.0063 38.25 25.5789C38.25 27.1516 36.9937 28.4211 35.4375 28.4211ZM38.25 17.0526H28.875V7.57895H38.25V17.0526Z" fill="#BA0C2F"/>
</svg>
