<svg width="148" height="72" viewBox="0 0 148 72" fill="none" xmlns="http://www.w3.org/2000/svg">
<path d="M73.9077 0C57.3837 0 44 1.89474 44 15.1579V51.1579C44 58.4716 49.8694 64.4211 57.0846 64.4211L51.4769 70.1053V72H96.3385V70.1053L90.7308 64.4211C97.946 64.4211 103.815 58.4716 103.815 51.1579V15.1579C103.815 1.89474 90.4317 0 73.9077 0ZM57.0846 56.8421C53.9817 56.8421 51.4769 54.3032 51.4769 51.1579C51.4769 48.0126 53.9817 45.4737 57.0846 45.4737C60.1875 45.4737 62.6923 48.0126 62.6923 51.1579C62.6923 54.3032 60.1875 56.8421 57.0846 56.8421ZM70.1692 34.1053H51.4769V15.1579H70.1692V34.1053ZM90.7308 56.8421C87.6278 56.8421 85.1231 54.3032 85.1231 51.1579C85.1231 48.0126 87.6278 45.4737 90.7308 45.4737C93.8337 45.4737 96.3385 48.0126 96.3385 51.1579C96.3385 54.3032 93.8337 56.8421 90.7308 56.8421ZM96.3385 34.1053H77.6462V15.1579H96.3385V34.1053Z" fill="#BA0C2F"/>
</svg>
