<svg width="18" height="18" viewBox="0 0 18 18" fill="none" xmlns="http://www.w3.org/2000/svg">
<path d="M14.25 8.25002H5.355L8.0775 4.98002C8.2048 4.82686 8.26605 4.6294 8.24777 4.43108C8.22948 4.23276 8.13316 4.04983 7.98 3.92252C7.82684 3.79522 7.62938 3.73397 7.43106 3.75226C7.23274 3.77054 7.0498 3.86686 6.9225 4.02002L3.1725 8.52002C3.14727 8.55582 3.12471 8.59342 3.105 8.63252C3.105 8.67002 3.105 8.69252 3.0525 8.73002C3.01851 8.81602 3.00071 8.90756 3 9.00002C3.00071 9.09249 3.01851 9.18403 3.0525 9.27002C3.0525 9.30752 3.0525 9.33002 3.105 9.36752C3.12471 9.40663 3.14727 9.44423 3.1725 9.48002L6.9225 13.98C6.99302 14.0647 7.08132 14.1328 7.18113 14.1794C7.28095 14.2261 7.38982 14.2502 7.5 14.25C7.67524 14.2504 7.84507 14.1893 7.98 14.0775C8.05594 14.0146 8.11872 13.9372 8.16473 13.85C8.21075 13.7627 8.2391 13.6672 8.24815 13.569C8.25721 13.4708 8.2468 13.3717 8.21751 13.2775C8.18823 13.1833 8.14065 13.0958 8.0775 13.02L5.355 9.75002H14.25C14.4489 9.75002 14.6397 9.67101 14.7803 9.53035C14.921 9.3897 15 9.19894 15 9.00002C15 8.80111 14.921 8.61035 14.7803 8.46969C14.6397 8.32904 14.4489 8.25002 14.25 8.25002Z" fill="black"/>
</svg>
