<svg width="416" height="56" viewBox="0 0 416 56" fill="none" xmlns="http://www.w3.org/2000/svg">
<g clip-path="url(#clip0_9331_52653)">
<path fill-rule="evenodd" clip-rule="evenodd" d="M37.9066 0H22.0266V56C37.0933 49.3333 42.3599 40.6933 43.6933 38C43.9437 37.4851 44.0715 36.9192 44.0666 36.3467V6.16C44.0666 4.52627 43.4176 2.95945 42.2624 1.80422C41.1072 0.648998 39.5403 0 37.9066 0Z" fill="#B51E23"/>
<path fill-rule="evenodd" clip-rule="evenodd" d="M6.16016 0C4.52643 0 2.95961 0.648998 1.80438 1.80422C0.649158 2.95945 0.000160085 4.52627 0.000160085 6.16V36.3467C-0.00517325 36.92 0.122827 37.4853 0.373493 38C1.70683 40.6667 7.04016 49.3733 22.0268 56V0H6.16016Z" fill="#E21D3E"/>
<path fill-rule="evenodd" clip-rule="evenodd" d="M25.9334 24.1332C26.9551 23.3293 27.7009 22.2269 28.067 20.9794C28.4331 19.7319 28.4012 18.4013 27.9759 17.1727C27.5505 15.9442 26.7528 14.8787 25.6937 14.1246C24.6346 13.3706 23.3668 12.9653 22.0667 12.9653C20.7666 12.9653 19.4988 13.3706 18.4397 14.1246C17.3806 14.8787 16.5829 15.9442 16.1575 17.1727C15.7321 18.4013 15.7003 19.7319 16.0664 20.9794C16.4324 22.2269 17.1782 23.3293 18.2 24.1332C17.5067 28.0532 16.8227 31.9732 16.1467 35.8932C18.0889 36.2278 20.0559 36.3973 22.0267 36.3999C24.0267 36.4399 26.024 36.3066 28 35.9999C27.3067 31.9999 26.6667 28.0799 25.9334 24.1332Z" fill="white"/>
<path fill-rule="evenodd" clip-rule="evenodd" d="M72.3334 8.28003H63.4534V47.6H89.1867V39.8534H72.3334V8.28003Z" fill="#112E51"/>
<path d="M116.627 8C104.627 8 95.5067 16.48 95.5067 28C95.5067 39.52 104.6 48 116.627 48C128.653 48 137.747 39.2933 137.747 28C137.747 16.7067 128.653 8 116.627 8ZM116.733 40.24C113.505 40.2154 110.417 38.9145 108.143 36.6213C105.87 34.3282 104.596 31.2289 104.6 28C104.586 26.3996 104.89 24.8122 105.494 23.33C106.097 21.8478 106.99 20.5003 108.118 19.3654C109.247 18.2306 110.59 17.3311 112.068 16.7191C113.547 16.107 115.133 15.7946 116.733 15.8C118.319 15.8104 119.888 16.135 121.348 16.7553C122.807 17.3755 124.13 18.279 125.238 19.4135C126.347 20.548 127.219 21.891 127.805 23.3649C128.392 24.8387 128.68 26.4141 128.653 28C128.685 29.5892 128.401 31.169 127.817 32.6474C127.233 34.1259 126.362 35.4736 125.253 36.6124C124.144 37.7512 122.82 38.6583 121.357 39.281C119.895 39.9037 118.323 40.2297 116.733 40.24Z" fill="#112E51"/>
<path fill-rule="evenodd" clip-rule="evenodd" d="M167.653 15.6933C171.663 15.793 175.499 17.3528 178.44 20.08L183.44 13.7333C179.008 10.0393 173.423 8.01122 167.653 8C155.4 8 146.187 16.6 146.187 28C146.187 39.4 155.24 48 167.147 48C172.868 47.9045 178.433 46.1236 183.147 42.88V25.9733H168.533V32.92H175.4V38.1067C173.03 39.3898 170.399 40.1192 167.707 40.24C166.061 40.2943 164.421 40.0169 162.885 39.4246C161.348 38.8322 159.946 37.9369 158.763 36.7918C157.58 35.6468 156.639 34.2754 155.996 32.7593C155.353 31.2432 155.022 29.6134 155.022 27.9667C155.022 26.32 155.353 24.6901 155.996 23.174C156.639 21.6579 157.58 20.2866 158.763 19.1415C159.946 17.9965 161.348 17.1011 162.885 16.5088C164.421 15.9164 166.061 15.6391 167.707 15.6933H167.653ZM195.907 8.28H204.787V47.6H195.907V8.28ZM245.627 33.56L226.52 8.28H218.427V47.6H226.907V22.3867L245.96 47.6H254.04V8.28H245.627V33.56ZM270.787 37.68C270.114 37.6625 269.445 37.7844 268.821 38.038C268.198 38.2915 267.634 38.6713 267.164 39.1534C266.695 39.6355 266.33 40.2095 266.093 40.8393C265.856 41.4692 265.751 42.1413 265.787 42.8133C265.752 43.4908 265.855 44.1683 266.09 44.8045C266.325 45.4408 266.687 46.0226 267.154 46.5145C267.621 47.0064 268.184 47.3981 268.807 47.6658C269.43 47.9334 270.102 48.0714 270.78 48.0714C271.458 48.0714 272.13 47.9334 272.753 47.6658C273.376 47.3981 273.938 47.0064 274.406 46.5145C274.873 46.0226 275.235 45.4408 275.47 44.8045C275.705 44.1683 275.808 43.4908 275.773 42.8133C275.814 42.141 275.715 41.4674 275.481 40.8357C275.247 40.2041 274.883 39.6282 274.414 39.1451C273.945 38.6619 273.38 38.282 272.755 38.0297C272.13 37.7774 271.46 37.6583 270.787 37.68ZM304.12 15.6933C308.13 15.793 311.965 17.3528 314.907 20.08L319.907 13.7333C315.474 10.0393 309.89 8.01122 304.12 8C291.867 8 282.667 16.6 282.667 28C282.667 39.4 291.72 48 303.627 48C309.348 47.9045 314.913 46.1236 319.627 42.88V25.9733H305V32.92H311.867V38.1067C309.496 39.3898 306.866 40.1192 304.173 40.24C302.528 40.2943 300.888 40.0169 299.351 39.4246C297.815 38.8322 296.413 37.9369 295.23 36.7918C294.046 35.6468 293.105 34.2754 292.463 32.7593C291.82 31.2432 291.489 29.6134 291.489 27.9667C291.489 26.32 291.82 24.6901 292.463 23.174C293.105 21.6579 294.046 20.2866 295.23 19.1415C296.413 17.9965 297.815 17.1011 299.351 16.5088C300.888 15.9164 302.528 15.6391 304.173 15.6933H304.12Z" fill="#112E51"/>
<path d="M350.533 8C338.533 8 329.413 16.48 329.413 28C329.413 39.52 338.52 48 350.533 48C362.547 48 371.667 39.2933 371.667 28C371.667 16.7067 362.56 8 350.533 8ZM350.667 40.24C347.429 40.2153 344.333 38.9071 342.058 36.6024C339.783 34.2977 338.516 31.1848 338.533 27.9467C338.519 26.3462 338.823 24.7589 339.427 23.2767C340.031 21.7945 340.923 20.4469 342.052 19.3121C343.18 18.1773 344.523 17.2778 346.002 16.6657C347.481 16.0537 349.066 15.7413 350.667 15.7467C352.255 15.7604 353.825 16.0894 355.285 16.7146C356.746 17.3397 358.067 18.2485 359.174 19.3884C360.28 20.5282 361.149 21.8764 361.73 23.3546C362.312 24.8329 362.594 26.4119 362.56 28C362.592 29.587 362.308 31.1646 361.726 32.6413C361.144 34.118 360.275 35.4646 359.169 36.603C358.063 37.7414 356.742 38.649 355.282 39.2733C353.823 39.8976 352.254 40.2262 350.667 40.24Z" fill="#112E51"/>
<path fill-rule="evenodd" clip-rule="evenodd" d="M406.84 8.28003L396.053 37.9467L385.32 8.28003H375.773L391.227 47.6H400.387L416 8.28003H406.84Z" fill="#112E51"/>
</g>
<defs>
<clipPath id="clip0_9331_52653">
<rect width="416" height="56" fill="white"/>
</clipPath>
</defs>
</svg>
