<svg width="193" height="110" viewBox="0 0 193 110" fill="none" xmlns="http://www.w3.org/2000/svg">
<path fill-rule="evenodd" clip-rule="evenodd" d="M3.95581 110H124.98L132.36 72.6794H11.3454L3.95581 110ZM87.6733 99.0414L89.7607 88.2087H93.1153L91.028 99.0414H87.6733ZM90.6366 82.9996H94.2336L93.6372 86.112H90.0402L90.6366 82.9996ZM86.4944 88.2041H83.7641L83.8666 87.6776C83.9784 87.0579 84.216 86.6106 84.5702 86.3404C84.9243 86.0701 85.4368 85.9164 86.1077 85.8884L87.58 85.8232L87.7897 83.3724L86.5596 83.4377C84.7565 83.5402 83.3587 83.9595 82.3663 84.6957C81.3739 85.4272 80.7402 86.5034 80.4607 87.9152L80.4048 88.2041H78.3408L77.8608 90.6968H79.9249L78.3175 99.0368H81.6721L83.2795 90.6968H86.0331L86.4944 88.2041ZM36.9295 92.3322C37.3069 92.9798 37.4467 93.7392 37.3488 94.6059C37.1904 96.0176 36.5521 97.1125 35.4339 97.8813C34.3157 98.6547 32.8853 99.0415 31.1381 99.0415H23.5901L26.5673 83.4843H33.5609C35.2615 83.4843 36.5241 83.8384 37.3395 84.5419C38.1549 85.2501 38.495 86.1959 38.3599 87.3887C38.1642 89.1266 37.1019 90.338 35.173 91.0276C35.9697 91.2512 36.5521 91.6845 36.9295 92.3322ZM33.3139 95.9384C33.7938 95.6216 34.0734 95.1044 34.1572 94.3822C34.2318 93.7346 34.0827 93.25 33.71 92.9239C33.3372 92.6024 32.7222 92.4393 31.8649 92.4393H28.2447L27.4852 96.409H31.1474C32.1165 96.4136 32.834 96.2552 33.3139 95.9384ZM34.134 89.3642C34.6045 89.0614 34.8794 88.5721 34.954 87.8966C35.0891 86.7038 34.339 86.1074 32.7129 86.1074H29.4468L28.7386 89.8162H32.0233C32.9645 89.8162 33.6634 89.6671 34.134 89.3642ZM49.2623 89.2757C50.0358 90.1656 50.3293 91.4469 50.1383 93.1242C50.101 93.4783 50.0358 93.851 49.9473 94.2517H42.8652C42.814 95.9011 43.6293 96.7211 45.316 96.7211C46.4249 96.7211 47.5244 96.367 48.61 95.6635L49.0713 97.8906C48.5495 98.3006 47.9065 98.6267 47.1424 98.8597C46.3736 99.0927 45.5909 99.2138 44.7941 99.2138C43.6526 99.2138 42.6788 98.9948 41.8728 98.5522C41.0621 98.1096 40.4657 97.4899 40.0836 96.6885C39.7016 95.8871 39.5665 94.9553 39.6876 93.8976C39.8181 92.7375 40.1768 91.7031 40.7592 90.7992C41.3416 89.8953 42.0825 89.1918 42.9724 88.6933C43.8669 88.1947 44.8361 87.9431 45.8891 87.9431C47.3614 87.9431 48.4843 88.3857 49.2623 89.2757ZM43.1121 92.5977H47.4219C47.5105 91.8056 47.4033 91.2092 47.1005 90.8225C46.7976 90.4311 46.341 90.2401 45.7353 90.2401C44.4121 90.2355 43.5408 91.0229 43.1121 92.5977ZM63.5434 91.8895C63.6879 90.5942 63.4875 89.6157 62.9424 88.9448C62.3926 88.2739 61.512 87.9431 60.2959 87.9477C59.5411 87.9477 58.8469 88.0875 58.2086 88.3578C57.5703 88.6327 57.0298 89.0101 56.5918 89.4946L56.8481 88.2133H53.582L51.4946 99.0461H54.8493L56.0234 92.9797C56.1678 92.2296 56.466 91.6379 56.9133 91.2046C57.3606 90.7712 57.9337 90.5523 58.6279 90.5523C59.2336 90.5523 59.6623 90.734 59.9092 91.102C60.1562 91.4701 60.2074 92.0106 60.0676 92.7328L58.8469 99.0414H62.2016L63.4409 92.5977C63.4735 92.4346 63.5061 92.197 63.5434 91.8895ZM75.14 89.2757C75.9135 90.1656 76.207 91.4469 76.016 93.1242C75.9787 93.4783 75.9135 93.851 75.8203 94.2517H68.7383C68.687 95.9011 69.5024 96.7211 71.189 96.7211C72.2979 96.7211 73.3975 96.367 74.4831 95.6635L74.9444 97.8906C74.4225 98.3006 73.7795 98.6267 73.0154 98.8597C72.2467 99.0927 71.4639 99.2138 70.6672 99.2138C69.5257 99.2138 68.5519 98.9948 67.7458 98.5522C66.9351 98.1096 66.3387 97.4899 65.9567 96.6885C65.5746 95.8871 65.4395 94.9553 65.5606 93.8976C65.6911 92.7375 66.0499 91.7031 66.6323 90.7992C67.2147 89.8953 67.9555 89.1918 68.8454 88.6933C69.74 88.1947 70.7091 87.9431 71.7621 87.9431C73.2437 87.9431 74.3666 88.3857 75.14 89.2757ZM68.9945 92.5977H73.3043C73.3928 91.8056 73.2857 91.2092 72.9828 90.8225C72.68 90.4311 72.2234 90.2401 71.6177 90.2401C70.2944 90.2355 69.4232 91.0229 68.9945 92.5977ZM100.677 96.7677C99.4192 96.7677 98.916 96.1061 99.1676 94.7829L99.955 90.7014H102.709L103.17 88.2087H100.44L101.041 85.0311H97.686L97.085 88.2087H95.0209L94.541 90.7014H96.6051L95.813 94.7829C95.785 94.918 95.7524 95.1137 95.7244 95.3792C95.5847 96.6466 95.8549 97.6017 96.5352 98.2493C97.2154 98.897 98.3057 99.2185 99.8013 99.2185C100.202 99.2185 100.621 99.1812 101.059 99.1066L101.707 96.7025C101.302 96.7444 100.957 96.7677 100.677 96.7677ZM103.035 97.8906L104.381 95.5936C104.945 95.9896 105.56 96.3018 106.231 96.5208C106.902 96.7398 107.577 96.8516 108.258 96.8516C108.835 96.8516 109.269 96.7724 109.562 96.6093C109.856 96.4462 110.014 96.2319 110.047 95.971C110.079 95.6635 109.94 95.4259 109.627 95.2628C109.311 95.0997 108.798 94.9087 108.081 94.6897C107.321 94.4847 106.697 94.2704 106.212 94.0514C105.728 93.8324 105.322 93.5062 105.001 93.0823C104.679 92.6536 104.558 92.1038 104.633 91.4282C104.707 90.7526 104.982 90.1469 105.448 89.6204C105.914 89.094 106.529 88.6793 107.289 88.3857C108.048 88.0922 108.891 87.9431 109.828 87.9431C110.657 87.9431 111.449 88.0643 112.209 88.3065C112.964 88.5488 113.588 88.875 114.072 89.2896L112.758 91.4981C112.269 91.1021 111.747 90.8039 111.193 90.6035C110.639 90.4032 110.07 90.3054 109.492 90.3054C108.929 90.3054 108.491 90.3846 108.178 90.5476C107.862 90.7107 107.689 90.939 107.657 91.2325C107.619 91.54 107.759 91.7823 108.076 91.9501C108.388 92.1178 108.905 92.3088 109.623 92.5138C110.382 92.7188 111.007 92.9332 111.491 93.1521C111.976 93.3711 112.381 93.6973 112.703 94.1213C113.024 94.5499 113.15 95.0997 113.071 95.7753C112.95 96.8516 112.428 97.6902 111.51 98.3006C110.587 98.911 109.395 99.2185 107.932 99.2185C106.077 99.2185 104.446 98.7759 103.035 97.8906Z" fill="#C0DBE2"/>
<path fill-rule="evenodd" clip-rule="evenodd" d="M84.3462 72.6796H183.504L192.208 30.4995H93.0543L84.3462 72.6796ZM119.351 35.6805H111.999L105.229 67.5032H112.581L119.351 35.6805ZM121.858 42.1336H130.957L125.534 67.5032H132.886L138.31 42.1336H147.362L148.709 35.6806H123.204L121.858 42.1336ZM152.604 35.6806H165.557C166.782 35.6806 167.887 35.9368 168.874 36.4447C169.862 36.9525 170.691 37.6235 171.362 38.4621C172.033 39.3008 172.55 40.2559 172.909 41.3322C173.268 42.4085 173.445 43.5127 173.445 44.6496C173.445 46.1732 173.114 47.6921 172.457 49.197C171.8 50.7066 170.91 52.0531 169.792 53.2319C168.669 54.4107 167.374 55.3752 165.892 56.1206C164.415 56.8661 162.836 57.2389 161.163 57.2389H155.335L153.182 67.5032H145.83L152.604 35.6806ZM162.062 50.8278C162.51 50.8278 162.966 50.702 163.428 50.4457C163.889 50.1941 164.308 49.8167 164.681 49.3275C165.054 48.8336 165.352 48.2512 165.576 47.5803C165.799 46.9093 165.911 46.1406 165.911 45.2739C165.911 44.1977 165.687 43.4056 165.24 42.8977C164.793 42.3899 164.271 42.1336 163.67 42.1336H158.559L156.723 50.8278H162.062Z" fill="#FDB714"/>
<path d="M99.1533 42.1801H0L8.70346 0H107.857L99.1533 42.1801Z" fill="#81B8C5"/>
<path d="M25.2436 37.2227C23.3613 37.2227 21.6886 36.8407 20.2256 36.0812C18.7626 35.3171 17.5232 34.3061 16.5075 33.0341C15.4918 31.7668 14.723 30.3177 14.2012 28.687C13.6794 27.0609 13.4185 25.3789 13.4185 23.6457C13.4185 22.1827 13.6328 20.7011 14.0707 19.2101C14.5041 17.7145 15.1144 16.2748 15.9065 14.8863C16.6986 13.4979 17.663 12.2073 18.7952 11.0099C19.9321 9.81709 21.1994 8.76876 22.6065 7.87418C24.0089 6.97961 25.5325 6.26675 27.1772 5.74491C28.8219 5.22308 30.5551 4.96216 32.3769 4.96216C35.247 4.96216 37.5906 5.60513 39.4124 6.89108C41.2341 8.17703 42.4455 9.8497 43.0419 11.9091L36.5423 15.8555C36.3932 15.0215 36.1323 14.3226 35.7595 13.7728C35.3868 13.2183 34.9302 12.771 34.3944 12.4263C33.8585 12.0815 33.2761 11.8439 32.6471 11.7087C32.0181 11.5736 31.4078 11.5084 30.8114 11.5084C29.2599 11.5084 27.8668 11.8765 26.6414 12.608C25.416 13.3395 24.377 14.2806 23.5243 15.4315C22.6717 16.5823 22.0241 17.845 21.5768 19.2194C21.1295 20.5939 20.9059 21.9218 20.9059 23.2077C20.9059 24.2235 21.0317 25.1786 21.2879 26.0778C21.5395 26.9724 21.9169 27.7645 22.4061 28.454C22.9 29.1436 23.5197 29.6887 24.2652 30.0894C25.0106 30.4948 25.8633 30.6951 26.8184 30.6951C27.4474 30.6951 28.0951 30.6113 28.766 30.4482C29.4369 30.2851 30.1125 30.0289 30.7834 29.6841C31.4544 29.3393 32.0973 28.892 32.7124 28.3376C33.3227 27.7831 33.8539 27.1029 34.3012 26.2968L39.5894 29.8378C38.8719 31.0027 37.9587 32.051 36.8544 32.9735C35.7502 33.9007 34.5481 34.6788 33.2482 35.3031C31.9483 35.9321 30.6064 36.4074 29.2133 36.7382C27.8202 37.0597 26.4969 37.2227 25.2436 37.2227Z" fill="white"/>
<path d="M56.1671 5.13452H62.8438L66.9672 36.9571H59.4378L58.7669 29.8332H49.714L46.0845 36.9571H38.5085L56.1671 5.13452ZM58.6318 24.7639L57.7372 13.5118L51.9085 24.7592H58.6318V24.7639Z" fill="white"/>
<path d="M76.7376 5.13452H84.0899L78.6666 30.5041H93.0543L91.7078 36.9571H69.9724L76.7376 5.13452Z" fill="white"/>
</svg>
