<svg width="228" height="53" viewBox="0 0 228 53" fill="none" xmlns="http://www.w3.org/2000/svg">
<path d="M56.1747 30.7406H0.58313L5.46522 7.09283H61.0542L56.1747 30.7406Z" fill="#81B8C5"/>
<path d="M14.7358 27.9639C13.6805 27.9639 12.7428 27.7497 11.9225 27.3239C11.1023 26.8955 10.4075 26.3287 9.83805 25.6155C9.26861 24.905 8.8376 24.0927 8.54504 23.1784C8.25248 22.2668 8.1062 21.3238 8.1062 20.3521C8.1062 19.5319 8.22636 18.7012 8.4719 17.8653C8.71483 17.0268 9.05702 16.2197 9.50109 15.4412C9.94515 14.6628 10.4859 13.9393 11.1206 13.2679C11.758 12.5992 12.4685 12.0115 13.2573 11.51C14.0436 11.0084 14.8978 10.6088 15.8199 10.3162C16.7419 10.0237 17.7137 9.87738 18.735 9.87738C20.3441 9.87738 21.658 10.2379 22.6793 10.9588C23.7007 11.6798 24.3799 12.6175 24.7142 13.7721L21.0703 15.9846C20.9867 15.517 20.8404 15.1252 20.6314 14.8169C20.4225 14.5061 20.1665 14.2553 19.8661 14.062C19.5657 13.8687 19.2392 13.7355 18.8865 13.6598C18.5339 13.584 18.1917 13.5474 17.8573 13.5474C16.9875 13.5474 16.2065 13.7538 15.5195 14.1639C14.8325 14.574 14.25 15.1017 13.7719 15.7469C13.2939 16.3921 12.9308 17.1 12.6801 17.8705C12.4293 18.6411 12.3039 19.3856 12.3039 20.1065C12.3039 20.676 12.3744 21.2115 12.5181 21.7156C12.6592 22.2171 12.8707 22.6612 13.145 23.0478C13.4219 23.4344 13.7693 23.74 14.1873 23.9647C14.6052 24.1919 15.0832 24.3042 15.6187 24.3042C15.9714 24.3042 16.3345 24.2572 16.7106 24.1658C17.0867 24.0744 17.4655 23.9307 17.8417 23.7374C18.2178 23.5441 18.5783 23.2933 18.9231 22.9825C19.2653 22.6717 19.5631 22.2903 19.8138 21.8384L22.7786 23.8236C22.3763 24.4767 21.8644 25.0644 21.2453 25.5816C20.6262 26.1014 19.9523 26.5376 19.2235 26.8877C18.4947 27.2403 17.7424 27.5067 16.9614 27.6922C16.1803 27.8698 15.4411 27.9639 14.7358 27.9639Z" fill="white"/>
<path d="M32.0753 9.97147H35.8185L38.1303 27.8124H33.909L33.5329 23.8184H28.4575L26.4226 27.8124H22.1753L32.0753 9.97147ZM33.4571 20.9764L32.9556 14.6707L29.6878 20.9764H33.4571Z" fill="white"/>
<path d="M43.608 9.97147H47.73L44.6894 24.1946H52.7558L52.0008 27.8124H39.8152L43.608 9.97147Z" fill="white"/>
<path d="M103.465 47.8423H47.8735L52.7556 24.1946H108.345L103.465 47.8423Z" fill="#FDB714"/>
<path d="M63.3766 27.0966H67.4986L63.7031 44.9376H59.5812L63.3766 27.0966Z" fill="#136C97"/>
<path d="M74.0054 30.7171H68.9039L69.6588 27.0993H83.9577L83.2028 30.7171H78.1274L75.0869 44.9402H70.9649L74.0054 30.7171Z" fill="#136C97"/>
<path d="M86.1414 27.0967H93.4032C94.0902 27.0967 94.7093 27.2403 95.263 27.5251C95.8168 27.8098 96.2818 28.1859 96.6579 28.6561C97.0341 29.1263 97.324 29.6618 97.5252 30.2652C97.7263 30.8686 97.8255 31.4877 97.8255 32.1251C97.8255 32.9792 97.6401 33.8308 97.2718 34.6745C96.9035 35.5208 96.4045 36.2758 95.7776 36.9366C95.1481 37.5975 94.4219 38.1382 93.5913 38.5562C92.7632 38.9741 91.8777 39.1831 90.9399 39.1831H87.6722L86.4653 44.9376H82.3434L86.1414 27.0967ZM91.4441 35.5914C91.6949 35.5914 91.9508 35.5208 92.2094 35.3772C92.468 35.2361 92.7031 35.0245 92.9121 34.7503C93.1211 34.4734 93.2883 34.1469 93.4136 33.7707C93.539 33.3946 93.6017 32.9636 93.6017 32.4777C93.6017 31.8743 93.4763 31.4302 93.2256 31.1455C92.9748 30.8608 92.6822 30.7171 92.3453 30.7171H89.4797L88.4506 35.5914H91.4441Z" fill="#136C97"/>
<path d="M177.501 36.3097H109.651L113.793 15.389H181.639L177.501 36.3097Z" fill="#C0DBE2"/>
<path d="M127.915 26.4959C128.127 26.859 128.205 27.2848 128.15 27.7706C128.061 28.5621 127.703 29.176 127.077 29.607C126.45 30.0406 125.648 30.2574 124.668 30.2574H120.437L122.106 21.5355H126.027C126.98 21.5355 127.688 21.734 128.145 22.1284C128.602 22.5255 128.793 23.0557 128.717 23.7244C128.607 24.6988 128.012 25.3779 126.93 25.7645C127.374 25.8873 127.704 26.1328 127.915 26.4959ZM125.888 28.5177C126.157 28.3401 126.314 28.0501 126.361 27.6453C126.403 27.2822 126.319 27.0105 126.11 26.8277C125.901 26.6474 125.556 26.556 125.076 26.556H123.046L122.62 28.7815H124.673C125.214 28.7842 125.619 28.6953 125.888 28.5177ZM126.348 24.832C126.612 24.6622 126.766 24.3879 126.808 24.0092C126.883 23.3405 126.463 23.0061 125.551 23.0061H123.72L123.323 25.0854H125.164C125.69 25.0854 126.084 24.9992 126.348 24.832Z" fill="#046B99"/>
<path d="M134.827 24.7823C135.261 25.2813 135.425 25.9996 135.318 26.94C135.297 27.1385 135.261 27.3475 135.211 27.5721H131.24C131.212 28.4968 131.669 28.9565 132.614 28.9565C133.236 28.9565 133.853 28.758 134.461 28.3636L134.72 29.6122C134.427 29.8421 134.067 30.0249 133.638 30.1555C133.207 30.2861 132.769 30.354 132.322 30.354C131.682 30.354 131.136 30.2313 130.684 29.9831C130.23 29.735 129.895 29.3876 129.681 28.9383C129.467 28.489 129.391 27.9665 129.459 27.3736C129.532 26.7232 129.733 26.1433 130.06 25.6365C130.386 25.1298 130.802 24.7353 131.301 24.4558C131.802 24.1763 132.345 24.0353 132.936 24.0353C133.761 24.0327 134.393 24.2834 134.827 24.7823ZM131.382 26.6422H133.798C133.847 26.1981 133.787 25.8638 133.618 25.647C133.448 25.4275 133.192 25.3204 132.852 25.3204C132.11 25.3204 131.622 25.7619 131.382 26.6422Z" fill="#046B99"/>
<path d="M142.496 24.5969C142.802 24.973 142.914 25.5216 142.833 26.2478C142.812 26.4202 142.794 26.5534 142.776 26.6448L142.081 30.2574H140.2L140.884 26.7206C140.963 26.3157 140.934 26.0127 140.796 25.8063C140.657 25.5999 140.417 25.4981 140.077 25.4981C139.688 25.4981 139.367 25.6208 139.116 25.8638C138.865 26.1067 138.698 26.4384 138.617 26.859L137.959 30.26H136.078L137.248 24.1868H139.079L138.936 24.9051C139.181 24.6335 139.484 24.4219 139.842 24.2678C140.2 24.1163 140.589 24.0379 141.012 24.0379C141.697 24.0327 142.19 24.2207 142.496 24.5969Z" fill="#046B99"/>
<path d="M149.337 24.7823C149.771 25.2813 149.935 25.9996 149.828 26.94C149.807 27.1385 149.771 27.3475 149.718 27.5721H145.748C145.719 28.4968 146.176 28.9565 147.122 28.9565C147.744 28.9565 148.36 28.758 148.969 28.3636L149.227 29.6122C148.935 29.8421 148.574 30.0249 148.146 30.1555C147.715 30.2861 147.276 30.354 146.829 30.354C146.189 30.354 145.644 30.2313 145.192 29.9831C144.737 29.735 144.403 29.3876 144.189 28.9383C143.974 28.489 143.899 27.9665 143.967 27.3736C144.04 26.7232 144.241 26.1433 144.567 25.6365C144.894 25.1298 145.309 24.7353 145.808 24.4558C146.31 24.1763 146.853 24.0353 147.443 24.0353C148.271 24.0327 148.903 24.2834 149.337 24.7823ZM145.892 26.6422H148.308C148.358 26.1981 148.297 25.8638 148.128 25.647C147.958 25.4275 147.702 25.3204 147.362 25.3204C146.62 25.3204 146.132 25.7619 145.892 26.6422Z" fill="#046B99"/>
<path d="M154.172 24.1816H155.703L155.444 25.5791H153.901L152.999 30.2548H151.119L152.02 25.5791H150.863L151.132 24.1816H152.289L152.32 24.0196C152.477 23.2281 152.832 22.6247 153.389 22.2146C153.945 21.8019 154.729 21.5668 155.74 21.5093L156.429 21.4728L156.312 22.8468L155.486 22.8833C155.11 22.899 154.823 22.9852 154.624 23.1367C154.426 23.2882 154.292 23.539 154.23 23.8864L154.172 24.1816Z" fill="#046B99"/>
<path d="M156.361 30.2548L157.532 24.1815H159.412L158.242 30.2548H156.361ZM158.025 21.2612H160.042L159.708 23.0061H157.691L158.025 21.2612Z" fill="#046B99"/>
<path d="M162.806 27.8673C162.664 28.6091 162.947 28.98 163.652 28.98C163.809 28.98 164.002 28.967 164.229 28.9435L163.866 30.2913C163.621 30.3331 163.385 30.354 163.161 30.354C162.322 30.354 161.711 30.1738 161.33 29.8107C160.948 29.4476 160.797 28.9121 160.875 28.2016C160.891 28.0527 160.909 27.943 160.925 27.8673L161.369 25.579H160.212L160.481 24.1815H161.638L161.975 22.4001H163.856L163.519 24.1815H165.049L164.791 25.579H163.247L162.806 27.8673Z" fill="#046B99"/>
<path d="M164.976 29.6122L165.731 28.3244C166.047 28.5464 166.392 28.7214 166.768 28.8442C167.144 28.967 167.523 29.0297 167.904 29.0297C168.228 29.0297 168.471 28.9853 168.636 28.8938C168.8 28.8024 168.889 28.6822 168.907 28.536C168.926 28.3636 168.847 28.2303 168.672 28.1389C168.495 28.0475 168.207 27.9404 167.805 27.8176C167.379 27.7027 167.029 27.5825 166.758 27.4598C166.486 27.337 166.259 27.1541 166.078 26.9164C165.898 26.6761 165.83 26.3679 165.872 25.9891C165.914 25.6104 166.068 25.2708 166.329 24.9756C166.59 24.6804 166.935 24.448 167.361 24.2834C167.787 24.1188 168.26 24.0352 168.785 24.0352C169.25 24.0352 169.694 24.1032 170.119 24.239C170.543 24.3748 170.893 24.5577 171.164 24.7902L170.428 26.0283C170.153 25.8063 169.861 25.6391 169.55 25.5268C169.239 25.4145 168.92 25.3596 168.597 25.3596C168.28 25.3596 168.035 25.404 167.86 25.4954C167.682 25.5869 167.586 25.7149 167.567 25.8794C167.546 26.0518 167.625 26.1877 167.802 26.2817C167.977 26.3757 168.267 26.4828 168.67 26.5978C169.095 26.7127 169.445 26.8329 169.717 26.9556C169.989 27.0784 170.216 27.2612 170.396 27.4989C170.577 27.7393 170.647 28.0475 170.603 28.4263C170.535 29.0297 170.242 29.4998 169.728 29.842C169.21 30.1842 168.542 30.3566 167.721 30.3566C166.682 30.354 165.768 30.1059 164.976 29.6122Z" fill="#046B99"/>
</svg>
