<svg width="120" height="51" viewBox="0 0 120 51" fill="none" xmlns="http://www.w3.org/2000/svg">
<g clip-path="url(#clip0)">
<path d="M61.4554 19.0062H15.6924L19.7094 -0.461548H65.4724L61.4554 19.0062Z" fill="#81B8C5"/>
<path d="M27.3435 16.7182C26.4747 16.7182 25.7027 16.5418 25.0275 16.1913C24.3523 15.8387 23.7803 15.372 23.3115 14.7849C22.8427 14.2 22.4879 13.5313 22.247 12.7786C22.0062 12.0281 21.8857 11.2518 21.8857 10.4519C21.8857 9.77662 21.9847 9.09279 22.1868 8.40465C22.3868 7.71437 22.6685 7.04989 23.0341 6.40906C23.3996 5.76824 23.8448 5.17258 24.3673 4.61992C24.892 4.06941 25.4769 3.58557 26.1264 3.17269C26.7736 2.75981 27.4768 2.43079 28.2359 2.18994C28.995 1.9491 29.795 1.82867 30.6358 1.82867C31.9605 1.82867 33.0421 2.12543 33.8829 2.71895C34.7237 3.31246 35.2828 4.08446 35.5581 5.03495L32.5583 6.85635C32.4895 6.47143 32.369 6.14886 32.197 5.89511C32.025 5.63922 31.8142 5.43278 31.5669 5.27364C31.3196 5.11451 31.0508 5.00484 30.7605 4.94248C30.4702 4.88012 30.1885 4.85001 29.9133 4.85001C29.1972 4.85001 28.5542 5.01989 27.9886 5.35751C27.4231 5.69513 26.9435 6.12951 26.55 6.66067C26.1565 7.19182 25.8576 7.77458 25.6511 8.40896C25.4447 9.04333 25.3415 9.6562 25.3415 10.2497C25.3415 10.7185 25.3995 11.1593 25.5178 11.5744C25.6339 11.9873 25.8081 12.3528 26.0339 12.6711C26.2618 12.9893 26.5478 13.2409 26.8919 13.4259C27.236 13.613 27.6295 13.7054 28.0703 13.7054C28.3607 13.7054 28.6596 13.6667 28.9692 13.5915C29.2789 13.5162 29.5907 13.3979 29.9004 13.2388C30.21 13.0797 30.5068 12.8732 30.7906 12.6173C31.0723 12.3614 31.3175 12.0475 31.5239 11.6754L33.9646 13.3098C33.6335 13.8474 33.212 14.3312 32.7023 14.757C32.1927 15.1849 31.6379 15.544 31.0379 15.8322C30.438 16.1225 29.8186 16.3418 29.1757 16.4945C28.5327 16.6429 27.922 16.7182 27.3435 16.7182Z" fill="white"/>
<path d="M41.6159 1.90826H44.6975L46.6006 16.5956H43.1255L42.8158 13.3076H38.6376L36.9624 16.5956H33.4658L41.6159 1.90826ZM42.7535 10.968L42.3406 5.77472L39.6504 10.9658H42.7535V10.968Z" fill="white"/>
<path d="M51.1097 1.90826H54.5031L52 13.6173H58.6405L58.019 16.5956H47.9873L51.1097 1.90826Z" fill="white"/>
<path d="M100.386 33.0829H54.6211L58.6402 13.6151H104.403L100.386 33.0829Z" fill="#FDB714"/>
<path d="M67.3843 16.0063H70.7777L67.6531 30.6937H64.2598L67.3843 16.0063Z" fill="#2b6597"/>
<path d="M76.1343 18.9847H71.9346L72.556 16.0063H84.3274L83.706 18.9847H79.5277L77.0246 30.6937H73.6313L76.1343 18.9847Z" fill="#2b6597"/>
<path d="M86.1248 16.0063H92.1029C92.6685 16.0063 93.1781 16.1246 93.634 16.359C94.0899 16.5934 94.4727 16.9031 94.7823 17.2901C95.092 17.6772 95.3307 18.1181 95.4963 18.6148C95.6619 19.1116 95.7436 19.6212 95.7436 20.1459C95.7436 20.8491 95.5909 21.5501 95.2877 22.2447C94.9845 22.9414 94.5737 23.5629 94.0576 24.107C93.5394 24.651 92.9416 25.0962 92.2577 25.4402C91.5761 25.7843 90.8471 25.9563 90.0751 25.9563H87.3849L86.3914 30.6937H82.998L86.1248 16.0063ZM90.4901 22.9974C90.6965 22.9974 90.9073 22.9393 91.1202 22.821C91.3331 22.7049 91.5266 22.5307 91.6986 22.3049C91.8707 22.077 92.0083 21.8082 92.1115 21.4985C92.2147 21.1889 92.2664 20.834 92.2664 20.4341C92.2664 19.9373 92.1631 19.5717 91.9567 19.3373C91.7503 19.103 91.5094 18.9847 91.232 18.9847H88.873L88.0257 22.9974H90.4901Z" fill="#2b6597"/>
<path d="M73.3747 50.3077H17.5176L20.9281 33.0828H76.781L73.3747 50.3077Z" fill="#C0DBE2"/>
<path d="M32.7358 42.1533C32.9099 42.4522 32.9744 42.8027 32.9293 43.2027C32.8562 43.8543 32.5616 44.3596 32.0455 44.7144C31.5294 45.0714 30.8692 45.2499 30.0628 45.2499H26.5791L27.9532 38.0696H31.181C31.9659 38.0696 32.5487 38.2331 32.925 38.5578C33.3013 38.8847 33.4583 39.3212 33.3959 39.8717C33.3056 40.6738 32.8153 41.2329 31.925 41.5512C32.2928 41.6544 32.5616 41.8544 32.7358 42.1533ZM31.067 43.8177C31.2885 43.6715 31.4175 43.4328 31.4563 43.0995C31.4907 42.8006 31.4218 42.5769 31.2498 42.4264C31.0778 42.278 30.7939 42.2027 30.3982 42.2027H28.7274L28.3769 44.0349H30.0671C30.5144 44.0371 30.8455 43.9639 31.067 43.8177ZM31.4455 40.7835C31.6627 40.6437 31.7896 40.4179 31.824 40.1061C31.8863 39.5556 31.5401 39.2803 30.7896 39.2803H29.2822L28.9553 40.9921H30.4714C30.9057 40.9921 31.2283 40.9232 31.4455 40.7835Z" fill="#2b6597"/>
<path d="M38.4282 40.7426C38.7852 41.1533 38.9207 41.7447 38.8325 42.5188C38.8153 42.6823 38.7852 42.8543 38.7444 43.0392H35.4757C35.4521 43.8005 35.8284 44.179 36.6068 44.179C37.1186 44.179 37.6261 44.0155 38.1272 43.6908L38.3401 44.7187C38.0992 44.9079 37.8025 45.0585 37.4498 45.166C37.095 45.2735 36.7337 45.3294 36.366 45.3294C35.8391 45.3294 35.3897 45.2284 35.0177 45.0241C34.6435 44.8198 34.3683 44.5338 34.1919 44.1639C34.0156 43.794 33.9532 43.3639 34.0091 42.8758C34.0693 42.3403 34.2349 41.863 34.5037 41.4458C34.7725 41.0286 35.1145 40.7039 35.5252 40.4738C35.9381 40.2437 36.3853 40.1276 36.8713 40.1276C37.5509 40.1276 38.0691 40.3319 38.4282 40.7426ZM35.5897 42.2758H37.5788C37.6197 41.9103 37.5702 41.635 37.4305 41.4565C37.2907 41.2759 37.0799 41.1877 36.8004 41.1877C36.1897 41.1856 35.7875 41.549 35.5897 42.2758Z" fill="#2b6597"/>
<path d="M44.7416 40.5899C44.9932 40.8996 45.0857 41.3512 45.019 41.949C45.0018 42.0909 44.9867 42.2006 44.9717 42.2758L44.3997 45.2499H42.8514L43.4148 42.3382C43.4793 42.0049 43.4556 41.7554 43.3417 41.5856C43.2277 41.4157 43.0299 41.3318 42.7503 41.3318C42.4299 41.3318 42.1654 41.4329 41.9589 41.6329C41.7525 41.8329 41.6149 42.106 41.5482 42.4522L41.0063 45.252H39.458L40.4214 40.2523H41.9288L41.8106 40.8437C42.0127 40.62 42.2622 40.4458 42.5568 40.319C42.8514 40.1942 43.1718 40.1297 43.5201 40.1297C44.0814 40.1276 44.4878 40.2803 44.7416 40.5899Z" fill="#2b6597"/>
<path d="M50.3708 40.7426C50.7278 41.1533 50.8633 41.7447 50.7751 42.5188C50.7579 42.6823 50.7278 42.8543 50.6848 43.0392H47.4162C47.3925 43.8005 47.7688 44.179 48.5473 44.179C49.0591 44.179 49.5666 44.0155 50.0676 43.6908L50.2805 44.7187C50.0397 44.9079 49.7429 45.0585 49.3902 45.166C49.0354 45.2735 48.6741 45.3294 48.3064 45.3294C47.7796 45.3294 47.3301 45.2284 46.9581 45.0241C46.5839 44.8198 46.3087 44.5338 46.1324 44.1639C45.956 43.794 45.8937 43.3639 45.9496 42.8758C46.0098 42.3403 46.1754 41.863 46.4442 41.4458C46.713 41.0286 47.0549 40.7039 47.4656 40.4738C47.8785 40.2437 48.3258 40.1276 48.8118 40.1276C49.4956 40.1276 50.0139 40.3319 50.3708 40.7426ZM47.5344 42.2758H49.5236C49.5644 41.9103 49.515 41.635 49.3752 41.4565C49.2354 41.2759 49.0247 41.1877 48.7451 41.1877C48.1344 41.1856 47.7323 41.549 47.5344 42.2758Z" fill="#2b6597"/>
<path d="M54.3515 40.248H55.6117L55.3988 41.3985H54.1279L53.386 45.2477H51.8377L52.5796 41.3985H51.627L51.8484 40.248H52.8011L52.8269 40.1147C52.9559 39.4631 53.2484 38.9663 53.7064 38.6287C54.1644 38.289 54.8096 38.0954 55.6418 38.0481L56.2095 38.018L56.1127 39.1491L55.4332 39.1792C55.1235 39.1921 54.887 39.2631 54.7236 39.3878C54.5601 39.5125 54.4505 39.719 54.3988 40.005L54.3515 40.248Z" fill="#2b6597"/>
<path d="M56.1562 45.2499L57.1196 40.2502H58.6679L57.7046 45.2499H56.1562ZM57.5239 37.846H59.184L58.9088 39.2825H57.2487L57.5239 37.846Z" fill="#2b6597"/>
<path d="M61.4606 43.2844C61.3444 43.8951 61.5767 44.2005 62.1573 44.2005C62.2863 44.2005 62.4454 44.1897 62.6325 44.1704L62.3336 45.28C62.1315 45.3144 61.9379 45.3316 61.753 45.3316C61.0627 45.3316 60.5595 45.1832 60.2456 44.8843C59.9316 44.5854 59.8069 44.1446 59.8714 43.5596C59.8843 43.4371 59.8994 43.3468 59.9123 43.2844L60.2778 41.4006H59.3252L59.5467 40.2502H60.4993L60.7767 38.7836H62.325L62.0476 40.2502H63.3078L63.0949 41.4006H61.824L61.4606 43.2844Z" fill="#2b6597"/>
<path d="M63.2461 44.7187L63.8676 43.6586C64.1278 43.8413 64.4116 43.9854 64.7213 44.0865C65.0309 44.1876 65.3428 44.2392 65.6567 44.2392C65.9234 44.2392 66.1234 44.2026 66.2588 44.1273C66.3943 44.0521 66.4674 43.9532 66.4825 43.8327C66.4975 43.6908 66.433 43.5811 66.2889 43.5059C66.1427 43.4306 65.9062 43.3424 65.575 43.2414C65.2245 43.1468 64.9363 43.0478 64.7127 42.9468C64.489 42.8457 64.3019 42.6952 64.1536 42.4995C64.0052 42.3016 63.9493 42.0479 63.9837 41.7361C64.0181 41.4243 64.145 41.1447 64.36 40.9017C64.5751 40.6587 64.8589 40.4673 65.2094 40.3319C65.5599 40.1964 65.9492 40.1276 66.3814 40.1276C66.7642 40.1276 67.1298 40.1835 67.4803 40.2953C67.8286 40.4071 68.1168 40.5576 68.3404 40.749L67.734 41.7683C67.5082 41.5855 67.2674 41.4479 67.0115 41.3555C66.7556 41.263 66.4932 41.2178 66.2266 41.2178C65.9664 41.2178 65.7642 41.2544 65.6202 41.3296C65.4739 41.4049 65.3944 41.5103 65.3793 41.6458C65.3621 41.7877 65.4266 41.8995 65.5728 41.9769C65.7169 42.0543 65.9556 42.1425 66.2868 42.2371C66.6373 42.3317 66.9255 42.4307 67.1491 42.5317C67.3727 42.6328 67.5598 42.7833 67.7082 42.979C67.8566 43.1769 67.9147 43.4306 67.8781 43.7424C67.8222 44.2392 67.5813 44.6262 67.1577 44.9079C66.7319 45.1896 66.1814 45.3316 65.5062 45.3316C64.6503 45.3316 63.8977 45.1273 63.2461 44.7187Z" fill="#2b6597"/>
</g>
<defs>
<clipPath id="clip0">
<rect width="120" height="50.7692" fill="white"/>
</clipPath>
</defs>
</svg>
