<svg width="385" height="87" viewBox="0 0 385 87" fill="none" xmlns="http://www.w3.org/2000/svg">
<path d="M117.956 50.1764H0L10.359 0H128.309L117.956 50.1764Z" fill="#81B8C5"/>
<path d="M30.0293 44.2846C27.7901 44.2846 25.8004 43.8301 24.06 42.9267C22.3197 42.0177 20.8454 40.815 19.6371 39.3019C18.4288 37.7943 17.5143 36.0706 16.8935 34.1307C16.2728 32.1964 15.9624 30.1955 15.9624 28.1337C15.9624 26.3934 16.2174 24.6308 16.7384 22.8572C17.2538 21.0781 17.9799 19.3654 18.9221 17.7138C19.8643 16.0621 21.0116 14.5268 22.3585 13.1024C23.7108 11.6835 25.2184 10.4364 26.8923 9.37228C28.5605 8.30811 30.373 7.46011 32.3295 6.83935C34.286 6.21858 36.3478 5.9082 38.5149 5.9082C41.9291 5.9082 44.717 6.67307 46.8841 8.20281C49.0512 9.73254 50.4923 11.7223 51.2017 14.1721L43.4699 18.8666C43.2926 17.8745 42.9822 17.0431 42.5388 16.3891C42.0954 15.7296 41.5522 15.1975 40.9148 14.7873C40.2774 14.3772 39.5846 14.0945 38.8364 13.9338C38.0881 13.773 37.3621 13.6954 36.6526 13.6954C34.807 13.6954 33.1498 14.1333 31.6921 15.0035C30.2344 15.8737 28.9984 16.9932 27.9841 18.3622C26.9698 19.7312 26.1994 21.2333 25.6674 22.8683C25.1353 24.5034 24.8692 26.083 24.8692 27.6127C24.8692 28.821 25.0189 29.9572 25.3237 31.0269C25.623 32.0911 26.072 33.0333 26.6539 33.8536C27.2414 34.6739 27.9786 35.3224 28.8654 35.799C29.7522 36.2812 30.7665 36.5195 31.9027 36.5195C32.6509 36.5195 33.4213 36.4198 34.2195 36.2258C35.0176 36.0318 35.8213 35.727 36.6194 35.3168C37.4175 34.9067 38.1824 34.3746 38.914 33.715C39.64 33.0555 40.2719 32.2463 40.804 31.2874L47.0947 35.4997C46.2412 36.8854 45.1549 38.1324 43.8413 39.2298C42.5277 40.3328 41.0977 41.2584 39.5514 42.0011C38.005 42.7493 36.4088 43.3147 34.7515 43.7082C33.0943 44.0851 31.5258 44.2846 30.0293 44.2846Z" fill="white"/>
<path d="M66.8206 6.10767H74.763L79.6682 43.9631H70.7115L69.9133 35.4886H59.1442L54.8266 43.9631H45.8145L66.8206 6.10767ZM69.7526 29.4583L68.6884 16.0787L61.7547 29.4583H69.7526Z" fill="white"/>
<path d="M91.2909 6.10767H100.037L93.5855 36.2867H110.701L109.099 43.9631H83.2432L91.2909 6.10767Z" fill="white"/>
<path fill-rule="evenodd" clip-rule="evenodd" d="M100.342 86.4633H218.298L228.651 36.2869H110.701L100.342 86.4633ZM196.948 42.4446H181.54L173.481 80.3H182.227L184.788 68.0898H191.721C193.711 68.0898 195.59 67.6464 197.347 66.7596C199.11 65.8728 200.65 64.7255 201.986 63.3233C203.316 61.921 204.375 60.3192 205.156 58.5234C205.938 56.7332 206.331 54.9263 206.331 53.1139C206.331 51.7616 206.121 50.448 205.694 49.1677C205.267 47.8873 204.652 46.7511 203.854 45.7535C203.056 44.7558 202.069 43.9577 200.894 43.3536C199.719 42.7494 198.406 42.4446 196.948 42.4446ZM194.415 60.0144C193.866 60.3192 193.323 60.4689 192.791 60.4689H186.439L188.623 50.1265H194.703C195.418 50.1265 196.039 50.4314 196.571 51.0355C197.103 51.6396 197.369 52.5818 197.369 53.8622C197.369 54.8931 197.236 55.8076 196.97 56.6057C196.704 57.4038 196.349 58.0967 195.906 58.6842C195.463 59.2661 194.964 59.7151 194.415 60.0144ZM155.789 50.1265H144.965L146.567 42.4501H176.906L175.305 50.1265H164.535L158.084 80.3055H149.338L155.789 50.1265ZM141.983 42.4446H133.237L125.184 80.3H133.93L141.983 42.4446Z" fill="#FDB714"/>
<path fill-rule="evenodd" clip-rule="evenodd" d="M231.423 61.9931H375.39L384.169 17.603H240.213L231.423 61.9931ZM330.534 49.1455L333.017 36.2592H337.008L334.525 49.1455H330.534ZM334.065 30.0626H338.344L337.634 33.765H333.356L334.065 30.0626ZM329.137 36.2592H325.889L326.011 35.6329C326.144 34.8957 326.427 34.3636 326.848 34.0422C327.269 33.7207 327.879 33.5378 328.677 33.5046L330.429 33.427L330.678 30.5116L329.215 30.5892C327.07 30.7111 325.407 31.21 324.227 32.0857C323.046 32.9558 322.292 34.2362 321.96 35.9156L321.893 36.2592H319.438L318.867 39.2244H321.322L319.41 49.1455H323.401L325.313 39.2244H328.589L329.137 36.2592ZM270.176 41.1698C270.625 41.9402 270.791 42.8437 270.675 43.8746C270.486 45.554 269.727 46.8565 268.397 47.771C267.067 48.691 265.365 49.1511 263.287 49.1511H254.308L257.85 30.6446H266.169C268.192 30.6446 269.694 31.0658 270.664 31.9027C271.634 32.7452 272.038 33.8703 271.878 35.2892C271.645 37.3566 270.381 38.7976 268.087 39.6179C269.029 39.8784 269.727 40.3994 270.176 41.1698ZM265.875 45.4597C266.446 45.0829 266.779 44.4676 266.878 43.6085C266.967 42.8381 266.79 42.2617 266.346 41.8737C265.903 41.4913 265.171 41.2973 264.151 41.2973H259.845L258.941 46.0195H263.298C264.445 46.0251 265.304 45.8366 265.875 45.4597ZM266.851 37.6393C267.41 37.279 267.737 36.697 267.826 35.8934C267.987 34.4745 267.094 33.765 265.16 33.765H261.275L260.432 38.1769H264.34C265.454 38.1769 266.291 37.994 266.851 37.6393ZM284.842 37.5339C285.762 38.5926 286.111 40.1168 285.884 42.1121C285.839 42.5333 285.762 42.9767 285.657 43.4533H277.232C277.171 45.4154 278.141 46.3909 280.147 46.3909C281.466 46.3909 282.774 45.9697 284.066 45.1327L284.615 47.7821C283.994 48.2698 283.229 48.6578 282.32 48.9349C281.405 49.212 280.474 49.3561 279.526 49.3561C278.169 49.3561 277.01 49.0956 276.051 48.5691C275.087 48.0426 274.377 47.3054 273.923 46.3521C273.469 45.3988 273.308 44.2903 273.452 43.0321C273.607 41.652 274.034 40.4216 274.727 39.3463C275.419 38.2711 276.301 37.4342 277.359 36.8411C278.424 36.2481 279.576 35.9488 280.829 35.9488C282.58 35.9432 283.922 36.4753 284.842 37.5339ZM277.531 41.4802H282.658C282.763 40.538 282.636 39.8285 282.276 39.3685C281.915 38.9029 281.372 38.6757 280.652 38.6757C279.078 38.6757 278.041 39.6124 277.531 41.4802ZM301.829 40.6433C302.001 39.1025 301.763 37.9385 301.114 37.1404C300.466 36.3423 299.418 35.9432 297.966 35.9543C297.068 35.9543 296.242 36.1206 295.483 36.4421C294.724 36.7691 294.081 37.218 293.56 37.7944L293.865 36.2703H289.979L287.496 49.1566H291.487L292.884 41.9402C293.055 41.0479 293.41 40.344 293.942 39.8285C294.474 39.3131 295.156 39.0526 295.982 39.0526C296.702 39.0526 297.212 39.2688 297.506 39.7066C297.8 40.1445 297.861 40.7874 297.695 41.6465L296.242 49.1511H300.233L301.707 41.4858C301.746 41.2918 301.785 41.0091 301.829 40.6433ZM315.63 37.5339C316.55 38.5926 316.899 40.1168 316.672 42.1121C316.628 42.5333 316.55 42.9767 316.439 43.4533H308.015C307.954 45.4154 308.924 46.3909 310.93 46.3909C312.249 46.3909 313.557 45.9697 314.848 45.1327L315.397 47.7821C314.776 48.2698 314.012 48.6578 313.103 48.9349C312.188 49.212 311.257 49.3561 310.309 49.3561C308.951 49.3561 307.793 49.0956 306.834 48.5691C305.87 48.0426 305.16 47.3054 304.706 46.3521C304.251 45.3988 304.09 44.2903 304.235 43.0321C304.39 41.652 304.817 40.4216 305.509 39.3463C306.202 38.2711 307.083 37.4342 308.142 36.8411C309.206 36.2481 310.359 35.9488 311.612 35.9488C313.369 35.9432 314.71 36.4753 315.63 37.5339ZM308.319 41.4802H313.446C313.552 40.538 313.424 39.8285 313.064 39.3685C312.704 38.9029 312.16 38.6757 311.44 38.6757C309.866 38.6757 308.829 39.6124 308.319 41.4802ZM346.003 46.4407C344.507 46.4407 343.908 45.6537 344.208 44.0796L345.144 39.2244H348.42L348.969 36.2591H345.721L346.436 32.4791H342.445L341.73 36.2591H339.275L338.704 39.2244H341.159L340.217 44.0796C340.184 44.2404 340.145 44.4731 340.112 44.7891C339.945 46.2966 340.267 47.4328 341.076 48.2033C341.885 48.9737 343.182 49.3561 344.961 49.3561C345.438 49.3561 345.937 49.3118 346.458 49.2231L347.228 46.3631C346.746 46.413 346.336 46.4407 346.003 46.4407ZM348.813 47.782L350.415 45.0495C351.086 45.5207 351.817 45.892 352.615 46.1525C353.414 46.413 354.217 46.546 355.026 46.546C355.714 46.546 356.229 46.4518 356.578 46.2578C356.927 46.0638 357.116 45.8089 357.155 45.4985C357.194 45.1327 357.027 44.85 356.656 44.656C356.279 44.462 355.669 44.2348 354.816 43.9743C353.912 43.7304 353.17 43.4755 352.593 43.215C352.017 42.9545 351.535 42.5665 351.152 42.0621C350.77 41.5522 350.626 40.8982 350.714 40.0945C350.803 39.2909 351.13 38.5703 351.684 37.944C352.239 37.3177 352.97 36.8244 353.874 36.4753C354.777 36.1261 355.78 35.9487 356.894 35.9487C357.881 35.9487 358.823 36.0928 359.726 36.381C360.624 36.6693 361.367 37.0572 361.943 37.5505L360.38 40.1777C359.799 39.7066 359.178 39.3518 358.518 39.1135C357.859 38.8752 357.182 38.7588 356.495 38.7588C355.825 38.7588 355.304 38.853 354.932 39.047C354.555 39.241 354.35 39.5126 354.311 39.8617C354.267 40.2276 354.433 40.5158 354.81 40.7153C355.182 40.9148 355.797 41.1421 356.65 41.3859C357.554 41.6298 358.296 41.8848 358.873 42.1453C359.449 42.4058 359.932 42.7937 360.314 43.2981C360.696 43.808 360.846 44.462 360.752 45.2657C360.608 46.546 359.987 47.5437 358.895 48.2697C357.798 48.9958 356.379 49.3616 354.638 49.3616C352.433 49.3561 350.493 48.8295 348.813 47.782Z" fill="#C0DBE2"/>
</svg>
