<svg width="150" height="150" viewBox="0 0 150 150" fill="none" xmlns="http://www.w3.org/2000/svg">
<path fill-rule="evenodd" clip-rule="evenodd" d="M51.3639 17.1435L88.7172 20.1663L87.1271 55.5902L139.677 105.456C139.677 105.456 139.677 107.389 140.095 107.888C140.516 108.388 141.524 109.061 141.77 109.56C142.027 110.06 141.77 111.411 142.188 111.911C142.609 112.411 144.908 113.583 144.908 113.583C144.908 113.583 144.12 114.676 143.699 115.094C143.281 115.515 141.688 116.351 141.352 117.106C141.016 117.863 140.934 119.792 141.094 120.55C141.258 121.304 141.434 122.479 141.094 122.815C140.758 123.155 140.083 123.99 139.746 124.245C139.41 124.502 139.074 124.502 139.153 124.92C139.235 125.338 139.992 125.838 139.992 126.432C139.992 127.026 139.492 127.861 139.492 128.616C139.492 129.373 139.91 129.791 140.664 129.873C141.421 129.955 142.515 129.709 142.339 130.466C142.176 131.221 141.503 132.99 140.91 133.314C140.316 133.65 139.562 133.314 139.562 133.314L113.994 136.5C113.994 136.5 113.658 134.501 113.24 133.907C112.819 133.314 112.564 132.814 112.646 132.232C112.728 131.639 111.728 128.873 111.216 127.874C110.705 126.874 108.03 124.932 107.518 124.43C107.018 123.93 101.136 121.074 101.136 121.074C101.136 121.074 101.054 119.817 100.8 119.223C100.542 118.629 99.9608 117.212 99.2066 117.212C98.4494 117.212 97.6952 117.969 97.6952 117.969C97.6952 117.969 96.0201 117.293 95.5082 117.13C94.9964 116.969 93.2426 116.63 92.9852 116.212C92.7306 115.794 91.2192 113.365 89.6259 113.026C88.0328 112.689 87.2754 112.608 86.6849 112.689C86.0912 112.771 85.5096 112.526 84.8342 112.19C84.1617 111.853 81.893 111.772 81.057 111.932C80.2211 112.096 80.2211 112.096 80.2211 112.096L78.546 109.667L79.2215 108.749L78.4643 107.737L79.2215 106.819L78.3036 105.808L79.2215 104.968L78.6278 103.621C78.6278 103.621 78.9639 103.284 78.8822 102.863C78.8004 102.445 77.9645 102.191 77.6282 102.273C77.292 102.351 76.4529 101.434 76.3712 100.84C76.2894 100.249 77.0466 100.422 77.1284 100.086C77.2103 99.7495 76.5347 98.738 75.9531 98.5743C75.3596 98.4108 75.0354 98.7379 74.36 97.4809C73.6875 96.2269 74.2782 95.8907 73.524 95.8089C72.7667 95.7272 72.6879 95.6454 72.2669 94.7154C71.849 93.7977 71.1735 93.8795 70.8372 92.8677C70.5011 91.8561 71.5127 92.0287 71.0948 91.6107C70.6737 91.1928 69.3258 89.8449 68.826 89.4238C68.3262 89.0058 67.0601 87.5762 67.0601 87.5762L66.8027 83.7173C66.8027 83.7173 67.3964 84.0534 67.8962 83.378C68.3958 82.7055 68.3958 82.7055 68.3958 82.7055C68.3958 82.7055 69.0714 82.4481 68.8139 81.7848C68.5595 81.1245 67.8023 80.5308 67.8023 80.5308C67.8023 80.5308 68.0597 80.2733 67.7204 79.8554C67.3842 79.4373 65.8728 79.6008 65.8728 79.6008L62.8499 76.6476C62.8499 76.6476 62.5923 76.6598 62.8499 75.2756C63.1043 73.8912 63.7676 73.7185 63.4436 73.2189C63.1164 72.7191 62.3501 71.8678 62.1864 71.0319C62.0229 70.1959 62.0229 69.3569 62.6045 69.4386C63.1982 69.5205 63.8615 71.0319 64.5339 71.3681C65.2094 71.7074 65.0367 71.7074 65.8848 72.2889C66.7209 72.8796 65.6274 72.1254 65.0459 70.8562C64.4552 69.6022 64.0341 69.0903 64.2917 68.3331C64.5461 67.5789 64.8854 67.3213 65.0459 66.9034C65.2094 66.4854 64.9671 65.9856 64.3734 66.4037C63.7797 66.8217 63.7797 67.2426 63.6162 67.8333C63.4556 68.427 63.1982 69.0085 62.7801 69.0085C62.3622 69.0085 61.187 67.6607 60.5933 67.4153C59.9996 67.1609 59.5815 66.0673 59.0817 66.0673C58.5821 66.0673 57.9884 65.9039 57.9884 65.9039L58.9091 64.3105C58.9091 64.3105 58.3155 63.2172 57.9884 62.8809C57.6521 62.5448 57.2342 62.2872 57.1523 61.533C57.0705 60.7758 57.0705 60.3577 57.0705 60.3577C57.0705 60.3577 55.3986 59.9399 54.9684 58.9281C54.5384 57.9165 54.5505 57.4167 53.8749 56.6625C53.1995 55.9052 52.4453 55.7447 52.1061 54.8148C51.7698 53.894 52.4453 52.4643 52.1061 51.6283C51.7698 50.7892 51.27 50.6166 51.3519 49.5231C51.4337 48.4297 52.5272 47.1758 52.3635 46.4184C52.2 45.6642 50.5946 42.3839 50.5158 42.1416C50.4341 41.8962 50.5158 40.7907 50.5158 40.7907C50.5158 40.7907 47.2598 38.4674 47.2598 37.8738C47.2598 37.2801 47.5959 36.956 47.7594 36.5228C47.9231 36.1049 47.2598 35.6868 47.2598 35.6868C47.2598 35.6868 48.435 32.3277 48.8529 31.9914C49.271 31.6553 49.7708 32.246 50.0252 31.6553C50.2826 31.0616 50.2826 31.0616 50.2826 31.0616L49.8647 30.8981C49.8647 30.8981 50.7006 29.3048 50.8733 28.7928C51.0489 28.281 50.1191 27.6207 50.3735 26.9453C50.631 26.2698 51.5487 25.352 51.8031 23.9223C52.0607 22.4927 51.2126 20.2239 50.7915 19.8878C50.3735 19.5515 50.5371 18.7125 50.5371 18.7125L51.3639 17.1435Z" fill="#046B99"/>
<path fill-rule="evenodd" clip-rule="evenodd" d="M103.486 8.92841C60.0082 53.4088 20.2167 95.3359 3 118.523C16.8879 128.848 19.9775 131.123 19.9775 131.123C19.9775 131.123 50.3066 73.0578 103.486 8.92841Z" fill="#ED9F2E"/>
<path fill-rule="evenodd" clip-rule="evenodd" d="M116.252 4.5C92.9717 38.5608 71.8084 70.5316 63.2363 87.6544C73.4954 92.8006 75.7763 93.9305 75.7763 93.9305C75.7763 93.9305 88.9009 52.5093 116.252 4.5Z" fill="#ED9F2E"/>
</svg>
