<svg width="92" height="92" viewBox="0 0 92 92" fill="none" xmlns="http://www.w3.org/2000/svg">
<circle cx="46" cy="46" r="46" fill="#DFE1E1"/>
<path d="M25 59.5001V31.703H68.3168L90.6337 56.4753C90.6337 56.4753 90.5831 67.406 77.4257 79.2476C64.2684 91.0891 54 91.0001 54 91.0001L25 59.5001Z" fill="#C4C4C4"/>
<g clip-path="url(#clip0)">
<path d="M66.7642 30C68.291 30 69.54 31.2459 69.54 32.7683V58.4781C69.54 60.0006 68.291 61.2464 66.7642 61.2464H26.7758C25.2489 61.2464 24 60.0006 24 58.4781V32.7683C24 31.2459 25.2489 30 26.7758 30H66.7642ZM45.6066 35.3185H27.6565V56.2603H45.6066V35.3185Z" fill="#47525E"/>
<path d="M39.8076 47.655C39.5993 47.5982 39.391 47.5982 39.1828 47.7117C38.4018 48.1091 37.5166 48.393 36.5794 48.393C35.6422 48.393 34.757 48.1659 33.976 47.7117C33.7677 47.5982 33.5595 47.5982 33.3512 47.655C31.8933 48.0524 30.7478 49.3581 30.4354 51.0045L29.7065 54.5811C29.3941 56.1139 30.4354 57.5899 31.8933 57.5899H41.3696C42.8275 57.5899 43.8689 56.1139 43.5564 54.5811L42.8275 51.0045C42.411 49.3581 41.2655 48.1091 39.8076 47.655Z" fill="#47525E"/>
<path d="M36.4655 46.6204C38.9439 46.6204 40.9531 44.6113 40.9531 42.1329C40.9531 39.6545 38.9439 37.6454 36.4655 37.6454C33.9872 37.6454 31.978 39.6545 31.978 42.1329C31.978 44.6113 33.9872 46.6204 36.4655 46.6204Z" fill="#47525E"/>
</g>
<path d="M71.6837 48.7207C71.4224 48.7581 71.2798 48.7784 71.0184 48.8158L63.1769 59.2711L58.2887 55.605C58.0273 55.6423 57.8847 55.6627 57.6233 55.7L54.7278 59.5325C54.7651 59.7939 54.7855 59.9365 54.8228 60.1978L63.9475 67.0413C64.2088 67.004 64.3514 66.9836 64.6128 66.9463L75.6113 52.2816C75.5739 52.0203 75.5536 51.8777 75.5162 51.6163L71.6837 48.7207Z" fill="#53B3E2"/>
<defs>
<clipPath id="clip0">
<rect width="45.54" height="31.2464" fill="white" transform="translate(24 30)"/>
</clipPath>
</defs>
</svg>
