<svg width="90" height="90" viewBox="0 0 90 90" fill="none" xmlns="http://www.w3.org/2000/svg">
<circle cx="45" cy="45" r="45" fill="#DFE1E1"/>
<path d="M24.4561 58.2066V31.0138H66.8312L88.6629 55.2475C88.6629 55.2475 88.6134 65.9406 75.7421 77.5248C62.8708 89.1089 52.8256 89.0218 52.8256 89.0218L24.4561 58.2066Z" fill="#C4C4C4"/>
<g clip-path="url(#clip0_5982_25089)">
<path d="M34.0858 15.6522C34.4507 15.6522 34.8006 15.7971 35.0586 16.0551C35.3166 16.3131 35.4615 16.663 35.4615 17.0279V18.4035H57.4724V17.0279C57.4724 16.663 57.6173 16.3131 57.8753 16.0551C58.1333 15.7971 58.4832 15.6522 58.848 15.6522C59.2129 15.6522 59.5628 15.7971 59.8208 16.0551C60.0788 16.3131 60.2237 16.663 60.2237 17.0279V18.4035H62.9751C64.4345 18.4035 65.8341 18.9833 66.8661 20.0152C67.898 21.0472 68.4778 22.4468 68.4778 23.9063V54.1712C68.4778 55.6306 67.898 57.0302 66.8661 58.0622C65.8341 59.0942 64.4345 59.6739 62.9751 59.6739H29.9588C28.4994 59.6739 27.0997 59.0942 26.0678 58.0622C25.0358 57.0302 24.4561 55.6306 24.4561 54.1712V29.409H68.4778V26.6576H24.4561V23.9063C24.4561 22.4468 25.0358 21.0472 26.0678 20.0152C27.0997 18.9833 28.4994 18.4035 29.9588 18.4035H32.7101V17.0279C32.7101 16.663 32.8551 16.3131 33.1131 16.0551C33.371 15.7971 33.721 15.6522 34.0858 15.6522V15.6522Z" fill="#47525E"/>
</g>
<path d="M67.628 41.5551C67.3723 41.5916 67.2328 41.6115 66.9771 41.6481L59.3061 51.8761L54.5241 48.2897C54.2684 48.3262 54.1289 48.3461 53.8732 48.3826L51.0406 52.1318C51.0771 52.3875 51.0971 52.527 51.1336 52.7827L60.0599 59.4774C60.3156 59.4409 60.4551 59.421 60.7108 59.3844L71.4701 45.0386C71.4336 44.7829 71.4137 44.6434 71.3772 44.3877L67.628 41.5551Z" fill="#53B3E2"/>
<defs>
<clipPath id="clip0_5982_25089">
<rect width="44.0217" height="44.0217" fill="white" transform="translate(24.4561 15.6522)"/>
</clipPath>
</defs>
</svg>
