<svg width="40" height="50" viewBox="0 0 40 50" fill="none" xmlns="http://www.w3.org/2000/svg">
<path d="M39.0211 18.0881C38.2076 12.832 36.6433 7.76366 34.2656 3.13331C33.7024 1.94444 32.9516 0.818134 32.7013 0.567844C32.013 -0.120452 30.5112 -0.183024 29.6352 0.380127C29.0095 0.755561 28.3838 1.81929 28.3838 2.50759C28.3838 2.6953 28.9469 4.00932 29.6978 5.44849C33.0141 12.1437 34.3282 17.7127 34.3282 24.9085C34.3282 32.3546 32.8264 38.4867 29.385 45.1194C28.5089 46.7462 28.3838 47.1842 28.5089 47.7474C28.6967 48.686 29.5101 49.6246 30.3235 49.8749C30.699 50 31.0744 50 31.1995 50C31.3247 49.9374 31.575 49.9374 31.7627 49.9374C32.5136 49.9374 33.3896 48.7486 34.7662 45.8077C37.0813 40.9896 38.5205 36.0464 39.2714 30.54C39.5842 27.5365 39.5217 21.3419 39.0211 18.0881Z" fill="black"/>
<path d="M26.8816 13.3952C26.0056 10.7671 23.8155 6.19936 23.1272 5.57364C22.1261 4.63505 20.1863 4.82277 19.3729 5.8865C18.5594 7.07537 18.622 7.51338 19.9986 10.3917C22.1261 14.6466 22.9395 17.5875 23.3775 22.2805C23.9407 27.912 22.8144 33.6686 20.1863 39.0498C19.5606 40.3013 18.9975 41.5527 18.8723 41.8656C18.4969 42.9919 19.4355 44.4936 20.6243 44.8691C22.4389 45.4322 23.753 44.0556 25.5676 39.7381C29.2593 31.2283 29.6348 22.0302 26.8816 13.3952Z" fill="black"/>
<path d="M11.7391 9.95386C10.9256 9.95386 10.6753 10.079 10.0496 10.6422C8.86073 11.7685 8.86073 12.3316 10.2999 15.2099C13.5537 21.78 13.4911 28.225 10.1747 34.9202C9.29873 36.7348 9.11102 37.298 9.17359 37.7986C9.36131 38.612 9.98703 39.4254 10.7379 39.7383C11.0508 39.8634 11.6765 39.9886 11.9893 39.926C13.1782 39.7383 13.7414 39.1126 14.9302 36.7348C16.9951 32.5425 17.746 29.4764 17.746 24.9712C17.746 20.5912 16.9951 17.1497 15.0554 13.2076C13.8665 10.6422 13.1156 9.95386 11.7391 9.95386Z" fill="black"/>
<path d="M2.16579 14.6466C0.726625 14.8969 -0.274532 16.4612 0.100902 17.7126C0.163474 18.0255 0.60148 18.7764 0.976915 19.4647C2.16579 21.4044 2.41608 22.4056 2.41608 24.9085C2.41608 27.4113 2.16579 28.4125 0.976915 30.3522C0.0383293 31.854 -0.149387 32.4797 0.100902 33.2306C0.288619 33.9189 0.976915 34.7323 1.60264 34.9826C2.91666 35.5458 4.1681 34.92 5.29441 33.168C8.4856 28.2248 8.4856 21.5921 5.29441 16.6489C4.1681 14.9595 3.35466 14.4589 2.16579 14.6466Z" fill="black"/>
</svg>
