<svg width="128" height="128" viewBox="0 0 128 128" fill="none" xmlns="http://www.w3.org/2000/svg">
<circle cx="64" cy="64" r="64" fill="#DFE1E1"/>
<path d="M34.7827 82.7827V44.1085H95.0496L126.099 78.5743C126.099 78.5743 126.029 93.7822 107.723 110.257C89.417 126.733 75.1305 126.609 75.1305 126.609L34.7827 82.7827Z" fill="#C4C4C4"/>
<path d="M99.7341 67.7853C99.3704 67.8373 99.1721 67.8656 98.8084 67.9176L87.8985 82.4641L81.0975 77.3634C80.7338 77.4154 80.5355 77.4437 80.1718 77.4956L76.1432 82.8278C76.1951 83.1915 76.2235 83.3898 76.2754 83.7535L88.9706 93.2749C89.3343 93.2229 89.5326 93.1946 89.8963 93.1427L105.199 72.7397C105.147 72.376 105.118 72.1777 105.066 71.814L99.7341 67.7853Z" fill="#53B3E2"/>
<g clip-path="url(#clip0_2540_10750)">
<path d="M86.2217 37.3329H39.9995C36.813 37.3329 34.2217 39.9907 34.2217 43.2589V75.8514C34.2217 79.1196 36.813 81.7774 39.9995 81.7774H60.2217V87.7033H51.555V93.6292H74.6661V87.7033H65.9995V81.7774H86.2217C89.4081 81.7774 91.9995 79.1196 91.9995 75.8514V43.2589C91.9995 39.9907 89.4081 37.3329 86.2217 37.3329ZM39.9995 69.9255V43.2589H86.2217L86.2275 69.9255H39.9995Z" fill="#47525E"/>
<path d="M100.225 66.6661C99.8614 66.7181 99.663 66.7464 99.2994 66.7984L88.3895 81.345L81.5885 76.2442C81.2248 76.2962 81.0264 76.3245 80.6628 76.3765L76.6341 81.7086C76.6861 82.0723 76.7144 82.2706 76.7664 82.6343L89.4616 92.1557C89.8252 92.1037 90.0236 92.0754 90.3872 92.0235L105.689 71.6205C105.638 71.2568 105.609 71.0585 105.557 70.6948L100.225 66.6661Z" fill="#53B3E2"/>
</g>
<defs>
<clipPath id="clip0_2540_10750">
<rect width="69.3333" height="71.1111" fill="white" transform="translate(28.4438 28.444)"/>
</clipPath>
</defs>
</svg>
