<svg width="92" height="92" viewBox="0 0 92 92" fill="none" xmlns="http://www.w3.org/2000/svg">
<circle cx="46" cy="46" r="46" fill="#DFE1E1"/>
<path d="M23.6831 58.7525L68.3168 33.703L90.6336 56.4753C90.6336 56.4753 88.4999 68.0001 77.4999 79.5001C66.4999 91.0001 53.9207 91.0891 53.9207 91.0891L23.6831 58.7525Z" fill="#C4C4C4"/>
<path d="M65.541 30H25.5485C24.0215 30 22.7725 31.2491 22.7725 32.7754V58.5513C22.7725 60.0777 24.0215 61.3267 25.5485 61.3267H65.541C67.068 61.3267 68.317 60.0777 68.317 58.5513V32.7754C68.317 31.2491 67.068 30 65.541 30Z" fill="#47525E"/>
<rect x="26.416" y="52.9504" width="21.8614" height="3.64356" fill="#C4C4C4"/>
<rect x="26.416" y="47.4851" width="24.5941" height="3.64356" fill="#C4C4C4"/>
<path d="M71.6837 48.7207C71.4224 48.7581 71.2798 48.7784 71.0184 48.8158L63.1769 59.2711L58.2887 55.605C58.0273 55.6423 57.8847 55.6627 57.6233 55.7L54.7278 59.5325C54.7651 59.7939 54.7855 59.9365 54.8228 60.1978L63.9475 67.0413C64.2088 67.004 64.3514 66.9836 64.6128 66.9463L75.6113 52.2816C75.5739 52.0203 75.5536 51.8777 75.5162 51.6163L71.6837 48.7207Z" fill="#53B3E2"/>
</svg>
