<svg width="92" height="92" viewBox="0 0 92 92" fill="none" xmlns="http://www.w3.org/2000/svg">
<circle cx="46" cy="46" r="46" fill="#DFE1E1"/>
<path d="M23.6831 58.7524L68.3168 33.7029L90.6336 56.4752C90.6336 56.4752 88.4999 68.0001 77.4999 79.5001C66.4999 91.0001 53.9207 91.0891 53.9207 91.0891L23.6831 58.7524Z" fill="#C4C4C4"/>
<path d="M65.541 30H25.5485C24.0215 30 22.7725 31.2491 22.7725 32.7754V58.5513C22.7725 60.0777 24.0215 61.3267 25.5485 61.3267H65.541C67.068 61.3267 68.317 60.0777 68.317 58.5513V32.7754C68.317 31.2491 67.068 30 65.541 30Z" fill="#47525E"/>
<rect x="26.416" y="53.9504" width="21.8614" height="3" rx="1" fill="#C4C4C4"/>
<rect x="26.416" y="49.4851" width="24.5941" height="3" rx="1" fill="#C4C4C4"/>
<path d="M63.4531 65.0156C63.4531 63.5573 63.6302 62.3958 63.9844 61.5312C64.3385 60.6667 64.9844 59.8177 65.9219 58.9844C66.8698 58.1406 67.5 57.4583 67.8125 56.9375C68.125 56.4062 68.2812 55.849 68.2812 55.2656C68.2812 53.5052 67.4688 52.625 65.8438 52.625C65.0729 52.625 64.4531 52.8646 63.9844 53.3438C63.526 53.8125 63.2865 54.4635 63.2656 55.2969H58.7344C58.7552 53.3073 59.3958 51.75 60.6562 50.625C61.9271 49.5 63.6562 48.9375 65.8438 48.9375C68.0521 48.9375 69.7656 49.474 70.9844 50.5469C72.2031 51.6094 72.8125 53.1146 72.8125 55.0625C72.8125 55.9479 72.6146 56.7865 72.2188 57.5781C71.8229 58.3594 71.1302 59.2292 70.1406 60.1875L68.875 61.3906C68.0833 62.151 67.6302 63.0417 67.5156 64.0625L67.4531 65.0156H63.4531ZM63 69.8125C63 69.1146 63.2344 68.5417 63.7031 68.0938C64.1823 67.6354 64.7917 67.4062 65.5312 67.4062C66.2708 67.4062 66.875 67.6354 67.3438 68.0938C67.8229 68.5417 68.0625 69.1146 68.0625 69.8125C68.0625 70.5 67.8281 71.0677 67.3594 71.5156C66.901 71.9635 66.2917 72.1875 65.5312 72.1875C64.7708 72.1875 64.1562 71.9635 63.6875 71.5156C63.2292 71.0677 63 70.5 63 69.8125Z" fill="#53B3E2"/>
<path d="M63.4531 65.0156H62.8531V65.6156H63.4531V65.0156ZM65.9219 58.9844L66.3205 59.4328L66.3208 59.4325L65.9219 58.9844ZM67.8125 56.9375L68.327 57.2462L68.3297 57.2417L67.8125 56.9375ZM63.9844 53.3438L63.5555 52.9242L63.5554 52.9243L63.9844 53.3438ZM63.2656 55.2969V55.8969H63.8508L63.8654 55.3119L63.2656 55.2969ZM58.7344 55.2969L58.1344 55.2906L58.1281 55.8969H58.7344V55.2969ZM60.6562 50.625L60.2585 50.1757L60.2567 50.1774L60.6562 50.625ZM70.9844 50.5469L70.5879 50.9972L70.5901 50.9991L70.9844 50.5469ZM72.2188 57.5781L72.754 57.8493L72.7554 57.8465L72.2188 57.5781ZM70.1406 60.1875L70.554 60.6224L70.558 60.6185L70.1406 60.1875ZM68.875 61.3906L68.4616 60.9558L68.4594 60.9579L68.875 61.3906ZM67.5156 64.0625L66.9194 63.9956L66.9178 64.0094L66.9169 64.0232L67.5156 64.0625ZM67.4531 65.0156V65.6156H68.0151L68.0518 65.0549L67.4531 65.0156ZM63.7031 68.0938L64.1176 68.5275L64.1179 68.5273L63.7031 68.0938ZM67.3438 68.0938L66.9242 68.5229L66.934 68.5321L67.3438 68.0938ZM67.3594 71.5156L66.9448 71.0818L66.94 71.0865L67.3594 71.5156ZM63.6875 71.5156L63.2681 71.9448L63.273 71.9494L63.6875 71.5156ZM64.0531 65.0156C64.0531 63.5963 64.2269 62.5221 64.5396 61.7587L63.4292 61.3038C63.0336 62.2695 62.8531 63.5183 62.8531 65.0156H64.0531ZM64.5396 61.7587C64.8493 61.0026 65.4291 60.2252 66.3205 59.4328L65.5233 58.5359C64.5397 59.4102 63.8278 60.3307 63.4292 61.3038L64.5396 61.7587ZM66.3208 59.4325C67.2758 58.5824 67.9648 57.8498 68.327 57.2462L67.298 56.6288C67.0352 57.0668 66.4637 57.6988 65.523 58.5362L66.3208 59.4325ZM68.3297 57.2417C68.6932 56.6237 68.8813 55.9621 68.8813 55.2656H67.6812C67.6812 55.7359 67.5568 56.1888 67.2953 56.6333L68.3297 57.2417ZM68.8813 55.2656C68.8813 54.3043 68.6604 53.4715 68.1128 52.8782C67.5567 52.2758 66.7616 52.025 65.8438 52.025V53.225C66.5509 53.225 66.9745 53.4143 67.231 53.6921C67.4958 53.979 67.6812 54.4665 67.6812 55.2656H68.8813ZM65.8438 52.025C64.9378 52.025 64.1543 52.3121 63.5555 52.9242L64.4133 53.7633C64.752 53.4171 65.208 53.225 65.8438 53.225V52.025ZM63.5554 52.9243C62.9645 53.5286 62.6894 54.3397 62.6658 55.2819L63.8654 55.3119C63.8836 54.5874 64.0876 54.0964 64.4134 53.7632L63.5554 52.9243ZM63.2656 54.6969H58.7344V55.8969H63.2656V54.6969ZM59.3343 55.3032C59.3538 53.4496 59.9438 52.0651 61.0558 51.0726L60.2567 50.1774C58.8479 51.4349 58.1567 53.165 58.1344 55.2906L59.3343 55.3032ZM61.054 51.0743C62.1864 50.0718 63.7593 49.5375 65.8438 49.5375V48.3375C63.5532 48.3375 61.6678 48.9282 60.2585 50.1757L61.054 51.0743ZM65.8438 49.5375C67.959 49.5375 69.5128 50.0508 70.5879 50.9972L71.3808 50.0965C70.0184 48.8972 68.1451 48.3375 65.8438 48.3375V49.5375ZM70.5901 50.9991C71.6515 51.9244 72.2125 53.2492 72.2125 55.0625H73.4125C73.4125 52.98 72.7548 51.2943 71.3787 50.0946L70.5901 50.9991ZM72.2125 55.0625C72.2125 55.8548 72.0363 56.6015 71.6821 57.3098L72.7554 57.8465C73.1929 56.9714 73.4125 56.041 73.4125 55.0625H72.2125ZM71.6835 57.3069C71.33 58.0047 70.6891 58.8211 69.7232 59.7565L70.558 60.6185C71.5713 59.6372 72.3159 58.714 72.754 57.8493L71.6835 57.3069ZM69.7272 59.7526L68.4616 60.9558L69.2884 61.8255L70.554 60.6224L69.7272 59.7526ZM68.4594 60.9579C67.5741 61.8082 67.0507 62.8255 66.9194 63.9956L68.1119 64.1294C68.2097 63.2578 68.5926 62.4938 69.2906 61.8233L68.4594 60.9579ZM66.9169 64.0232L66.8544 64.9764L68.0518 65.0549L68.1143 64.1018L66.9169 64.0232ZM67.4531 64.4156H63.4531V65.6156H67.4531V64.4156ZM63.6 69.8125C63.6 69.2645 63.7771 68.853 64.1176 68.5275L63.2886 67.66C62.6917 68.2304 62.4 68.9647 62.4 69.8125H63.6ZM64.1179 68.5273C64.4721 68.1885 64.9268 68.0063 65.5312 68.0063V66.8062C64.6565 66.8062 63.8925 67.0823 63.2884 67.6602L64.1179 68.5273ZM65.5312 68.0063C66.1359 68.0063 66.5823 68.1884 66.9243 68.5228L67.7632 67.6647C67.1677 67.0824 66.4058 66.8062 65.5312 66.8062V68.0063ZM66.934 68.5321C67.2834 68.8586 67.4625 69.2688 67.4625 69.8125H68.6625C68.6625 68.9604 68.3625 68.2247 67.7535 67.6554L66.934 68.5321ZM67.4625 69.8125C67.4625 70.3472 67.2874 70.7545 66.9449 71.0818L67.7739 71.9494C68.3689 71.3809 68.6625 70.6528 68.6625 69.8125H67.4625ZM66.94 71.0865C66.6143 71.4048 66.1662 71.5875 65.5312 71.5875V72.7875C66.4171 72.7875 67.1877 72.5223 67.7787 71.9447L66.94 71.0865ZM65.5312 71.5875C64.8967 71.5875 64.4401 71.4048 64.102 71.0818L63.273 71.9494C63.8724 72.5222 64.645 72.7875 65.5312 72.7875V71.5875ZM64.1069 71.0865C63.7731 70.7603 63.6 70.3515 63.6 69.8125H62.4C62.4 70.6485 62.6853 71.3751 63.2681 71.9447L64.1069 71.0865Z" fill="#53B3E2"/>
<path d="M64.7859 38.5363C64.5819 37.2181 64.1896 35.947 63.5933 34.7858C63.452 34.4876 63.2637 34.2052 63.2009 34.1424C63.0283 33.9698 62.6517 33.9541 62.432 34.0953C62.2751 34.1895 62.1182 34.4563 62.1182 34.6289C62.1182 34.676 62.2594 35.0055 62.4477 35.3664C63.2794 37.0455 63.6089 38.4421 63.6089 40.2468C63.6089 42.1142 63.2323 43.652 62.3692 45.3154C62.1495 45.7234 62.1182 45.8333 62.1495 45.9745C62.1966 46.2099 62.4006 46.4453 62.6046 46.5081C62.6988 46.5395 62.7929 46.5395 62.8243 46.5395C62.8557 46.5238 62.9185 46.5238 62.9656 46.5238C63.1539 46.5238 63.3736 46.2256 63.7188 45.4881C64.2994 44.2797 64.6603 43.04 64.8487 41.6591C64.9271 40.9059 64.9114 39.3523 64.7859 38.5363Z" fill="#C4C4C4" stroke="#C4C4C4" stroke-width="0.484166"/>
<path d="M61.7416 37.3594C61.5219 36.7003 60.9726 35.5547 60.8 35.3978C60.549 35.1624 60.0625 35.2095 59.8585 35.4763C59.6545 35.7744 59.6702 35.8843 60.0154 36.6061C60.549 37.6732 60.753 38.4107 60.8628 39.5877C61.004 41 60.7216 42.4437 60.0625 43.7933C59.9056 44.1071 59.7643 44.421 59.7329 44.4994C59.6388 44.7819 59.8742 45.1585 60.1723 45.2527C60.6274 45.3939 60.957 45.0487 61.412 43.9659C62.3379 41.8317 62.432 39.5249 61.7416 37.3594Z" fill="#C4C4C4" stroke="#C4C4C4" stroke-width="0.484166"/>
<path d="M57.944 36.4963C57.74 36.4963 57.6772 36.5277 57.5203 36.6689C57.2221 36.9514 57.2221 37.0926 57.5831 37.8144C58.3991 39.4622 58.3834 41.0785 57.5517 42.7576C57.332 43.2126 57.2849 43.3539 57.3006 43.4794C57.3477 43.6834 57.5046 43.8874 57.6929 43.9659C57.7714 43.9973 57.9283 44.0287 58.0068 44.013C58.3049 43.9659 58.4462 43.809 58.7443 43.2126C59.2622 42.1613 59.4505 41.3923 59.4505 40.2625C59.4505 39.164 59.2622 38.3009 58.7757 37.3123C58.4775 36.6689 58.2892 36.4963 57.944 36.4963Z" fill="#C4C4C4" stroke="#C4C4C4" stroke-width="0.484166"/>
<path d="M55.5432 37.6732C55.1822 37.7359 54.9312 38.1282 55.0253 38.4421C55.041 38.5205 55.1508 38.7089 55.245 38.8815C55.5432 39.3679 55.6059 39.619 55.6059 40.2467C55.6059 40.8744 55.5432 41.1255 55.245 41.612C55.0096 41.9886 54.9625 42.1455 55.0253 42.3338C55.0724 42.5064 55.245 42.7104 55.4019 42.7732C55.7315 42.9144 56.0453 42.7575 56.3278 42.3181C57.1281 41.0784 57.1281 39.415 56.3278 38.1753C56.0453 37.7516 55.8413 37.6261 55.5432 37.6732Z" fill="#C4C4C4" stroke="#C4C4C4" stroke-width="0.484166"/>
</svg>
