<svg width="92" height="92" viewBox="0 0 92 92" fill="none" xmlns="http://www.w3.org/2000/svg">
<circle cx="46" cy="46" r="46" fill="#DFE1E1"/>
<path d="M23.6836 58.7525L68.3173 33.703L90.6341 56.4753C90.6341 56.4753 88.5004 68.0001 77.5004 79.5001C66.5004 91.0001 53.9212 91.0891 53.9212 91.0891L23.6836 58.7525Z" fill="#C4C4C4"/>
<path d="M65.541 30H25.5485C24.0215 30 22.7725 31.2491 22.7725 32.7754V58.5513C22.7725 60.0777 24.0215 61.3267 25.5485 61.3267H65.541C67.068 61.3267 68.317 60.0777 68.317 58.5513V32.7754C68.317 31.2491 67.068 30 65.541 30Z" fill="#47525E"/>
<rect x="26.416" y="53.9504" width="21.8614" height="3" rx="1" fill="#C4C4C4"/>
<rect x="26.416" y="49.4851" width="24.5941" height="3" rx="1" fill="#C4C4C4"/>
<path d="M71.6842 48.7207C71.4228 48.7581 71.2803 48.7784 71.0189 48.8158L63.1774 59.2711L58.2892 55.605C58.0278 55.6423 57.8852 55.6627 57.6238 55.7L54.7282 59.5325C54.7656 59.7939 54.7859 59.9365 54.8233 60.1978L63.948 67.0413C64.2093 67.004 64.3519 66.9836 64.6133 66.9463L75.6118 52.2816C75.5744 52.0203 75.5541 51.8777 75.5167 51.6163L71.6842 48.7207Z" fill="#53B3E2"/>
<path d="M64.7859 38.5363C64.5819 37.2181 64.1896 35.947 63.5933 34.7858C63.452 34.4876 63.2637 34.2052 63.2009 34.1424C63.0283 33.9698 62.6517 33.9541 62.432 34.0953C62.2751 34.1895 62.1182 34.4563 62.1182 34.6289C62.1182 34.676 62.2594 35.0055 62.4477 35.3664C63.2794 37.0455 63.6089 38.4421 63.6089 40.2468C63.6089 42.1142 63.2323 43.652 62.3692 45.3154C62.1495 45.7234 62.1182 45.8333 62.1495 45.9745C62.1966 46.2099 62.4006 46.4453 62.6046 46.5081C62.6988 46.5395 62.7929 46.5395 62.8243 46.5395C62.8557 46.5238 62.9185 46.5238 62.9656 46.5238C63.1539 46.5238 63.3736 46.2256 63.7188 45.4881C64.2994 44.2797 64.6603 43.04 64.8487 41.6591C64.9271 40.9059 64.9114 39.3523 64.7859 38.5363Z" fill="#C4C4C4" stroke="#C4C4C4" stroke-width="0.484166"/>
<path d="M61.7416 37.3594C61.5219 36.7003 60.9726 35.5547 60.8 35.3978C60.549 35.1624 60.0625 35.2095 59.8585 35.4763C59.6545 35.7744 59.6702 35.8843 60.0154 36.6061C60.549 37.6732 60.753 38.4107 60.8628 39.5877C61.004 41 60.7216 42.4437 60.0625 43.7933C59.9056 44.1071 59.7643 44.421 59.7329 44.4994C59.6388 44.7819 59.8742 45.1585 60.1723 45.2527C60.6274 45.3939 60.957 45.0487 61.412 43.9659C62.3379 41.8317 62.432 39.5249 61.7416 37.3594Z" fill="#C4C4C4" stroke="#C4C4C4" stroke-width="0.484166"/>
<path d="M57.944 36.4963C57.74 36.4963 57.6772 36.5277 57.5203 36.6689C57.2221 36.9514 57.2221 37.0926 57.5831 37.8144C58.3991 39.4622 58.3834 41.0785 57.5517 42.7576C57.332 43.2126 57.2849 43.3539 57.3006 43.4794C57.3477 43.6834 57.5046 43.8874 57.6929 43.9659C57.7714 43.9973 57.9283 44.0287 58.0068 44.013C58.3049 43.9659 58.4462 43.809 58.7443 43.2126C59.2622 42.1613 59.4505 41.3923 59.4505 40.2625C59.4505 39.164 59.2622 38.3009 58.7757 37.3123C58.4775 36.6689 58.2892 36.4963 57.944 36.4963Z" fill="#C4C4C4" stroke="#C4C4C4" stroke-width="0.484166"/>
<path d="M55.5432 37.6732C55.1822 37.736 54.9312 38.1283 55.0253 38.4421C55.041 38.5206 55.1508 38.7089 55.245 38.8815C55.5432 39.368 55.6059 39.619 55.6059 40.2467C55.6059 40.8744 55.5432 41.1255 55.245 41.612C55.0096 41.9886 54.9625 42.1455 55.0253 42.3338C55.0724 42.5065 55.245 42.7105 55.4019 42.7732C55.7315 42.9145 56.0453 42.7575 56.3278 42.3181C57.1281 41.0784 57.1281 39.415 56.3278 38.1753C56.0453 37.7516 55.8413 37.6261 55.5432 37.6732Z" fill="#C4C4C4" stroke="#C4C4C4" stroke-width="0.484166"/>
</svg>
