<svg width="25" height="22" viewBox="0 0 25 22" fill="none" xmlns="http://www.w3.org/2000/svg">
<path d="M1.5625 9.42969H20.0938L14.4219 2.57888C14.1567 2.258 14.0291 1.84431 14.0672 1.42882C14.1052 1.01333 14.3059 0.630072 14.625 0.363364C14.9441 0.0966557 15.3555 -0.0316587 15.7686 0.00664891C16.1818 0.0449565 16.5629 0.246748 16.8281 0.567631L24.6406 9.99536C24.6932 10.0703 24.7402 10.1491 24.7813 10.2311C24.7813 10.3096 24.7812 10.3568 24.8906 10.4353C24.9614 10.6155 24.9985 10.8073 25 11.001C24.9985 11.1947 24.9614 11.3865 24.8906 11.5666C24.8906 11.6452 24.8906 11.6923 24.7813 11.7709C24.7402 11.8528 24.6932 11.9316 24.6406 12.0066L16.8281 21.4343C16.6812 21.6117 16.4972 21.7543 16.2893 21.8521C16.0814 21.9499 15.8545 22.0004 15.625 22C15.2599 22.0007 14.9061 21.8729 14.625 21.6386C14.4668 21.5067 14.336 21.3447 14.2401 21.1619C14.1443 20.9791 14.0852 20.779 14.0663 20.5732C14.0475 20.3674 14.0692 20.1599 14.1302 19.9625C14.1912 19.7652 14.2903 19.5819 14.4219 19.4231L20.0938 12.5723H1.5625C1.1481 12.5723 0.750671 12.4067 0.457645 12.1121C0.164619 11.8174 0 11.4177 0 11.001C0 10.5843 0.164619 10.1846 0.457645 9.88991C0.750671 9.59524 1.1481 9.42969 1.5625 9.42969Z" fill="#ffffff"/>
</svg>
